<?xml version="1.0" encoding="utf-8"?>
<!-- Generator: Adobe Illustrator 18.1.1, SVG Export Plug-In . SVG Version: 6.00 Build 0)  -->
<svg version="1.1" xmlns="http://www.w3.org/2000/svg" xmlns:xlink="http://www.w3.org/1999/xlink" x="0px" y="0px"
	 viewBox="0 0 1920 1080" enable-background="new 0 0 1920 1080" xml:space="preserve">
<g id="background">
	<g>
		<rect x="-2.7" y="-391.2" fill="#F4BB69" width="1922.7" height="950.6"/>
		<rect x="2.3" y="350.2" fill="#E69132" width="1919.7" height="149.3"/>
		
			<radialGradient id="SVGID_1_" cx="967.3457" cy="436.5828" r="1169.6311" gradientTransform="matrix(1 0 0 0.8518 0 -56.9995)" gradientUnits="userSpaceOnUse">
			<stop  offset="0.4946" style="stop-color:#FAD681"/>
			<stop  offset="0.9677" style="stop-color:#FCCC8F"/>
		</radialGradient>
		<polygon fill="url(#SVGID_1_)" points="959.8,292.2 1376.1,-382.8 1478.7,-384.1 		"/>
		
			<radialGradient id="SVGID_2_" cx="967.3458" cy="436.5828" r="1169.6287" gradientTransform="matrix(1 0 0 0.8518 0 -56.9995)" gradientUnits="userSpaceOnUse">
			<stop  offset="0.4946" style="stop-color:#FAD681"/>
			<stop  offset="0.9677" style="stop-color:#FCCC8F"/>
		</radialGradient>
		<polygon fill="url(#SVGID_2_)" points="980.5,294.1 1604.2,-382.8 1660.2,-382.6 		"/>
		
			<radialGradient id="SVGID_3_" cx="967.3466" cy="436.5828" r="1169.6284" gradientTransform="matrix(1 0 0 0.8518 0 -56.9995)" gradientUnits="userSpaceOnUse">
			<stop  offset="0.4946" style="stop-color:#FAD681"/>
			<stop  offset="0.9677" style="stop-color:#FCCC8F"/>
		</radialGradient>
		<polygon fill="url(#SVGID_3_)" points="1005.8,290.2 1754.2,-382.8 1807.8,-382.8 		"/>
		
			<radialGradient id="SVGID_4_" cx="967.3464" cy="436.5826" r="1169.6285" gradientTransform="matrix(1 0 0 0.8518 0 -56.9995)" gradientUnits="userSpaceOnUse">
			<stop  offset="0.4946" style="stop-color:#FAD681"/>
			<stop  offset="0.9677" style="stop-color:#FCCC8F"/>
		</radialGradient>
		<polygon fill="url(#SVGID_4_)" points="1015,302 1922.6,-380.2 1922.6,-288.9 		"/>
		
			<radialGradient id="SVGID_5_" cx="967.3458" cy="436.5831" r="1169.6279" gradientTransform="matrix(1 0 0 0.8518 0 -56.9995)" gradientUnits="userSpaceOnUse">
			<stop  offset="0.4946" style="stop-color:#FAD681"/>
			<stop  offset="0.9677" style="stop-color:#FCCC8F"/>
		</radialGradient>
		<polygon fill="url(#SVGID_5_)" points="1044.8,294.1 1924.3,-218.3 1924.2,-179.3 		"/>
		
			<radialGradient id="SVGID_6_" cx="967.3464" cy="436.5826" r="1169.6281" gradientTransform="matrix(1 0 0 0.8518 0 -56.9995)" gradientUnits="userSpaceOnUse">
			<stop  offset="0.4946" style="stop-color:#FAD681"/>
			<stop  offset="0.9677" style="stop-color:#FCCC8F"/>
		</radialGradient>
		<polygon fill="url(#SVGID_6_)" points="1060.9,302 1922.6,-123.3 1924.2,-41.1 		"/>
		
			<radialGradient id="SVGID_7_" cx="967.3463" cy="436.5828" r="1169.6281" gradientTransform="matrix(1 0 0 0.8518 0 -56.9995)" gradientUnits="userSpaceOnUse">
			<stop  offset="0.4946" style="stop-color:#FAD681"/>
			<stop  offset="0.9677" style="stop-color:#FCCC8F"/>
		</radialGradient>
		<polygon fill="url(#SVGID_7_)" points="980.5,294.1 1285.8,-382.8 1207.7,-382.8 		"/>
		
			<radialGradient id="SVGID_8_" cx="967.3463" cy="436.5826" r="1169.6293" gradientTransform="matrix(1 0 0 0.8518 0 -56.9995)" gradientUnits="userSpaceOnUse">
			<stop  offset="0.4946" style="stop-color:#FAD681"/>
			<stop  offset="0.9677" style="stop-color:#FCCC8F"/>
		</radialGradient>
		<polygon fill="url(#SVGID_8_)" points="966.7,302 1097.5,-382.8 1010.2,-384.1 		"/>
		
			<radialGradient id="SVGID_9_" cx="967.3464" cy="436.5824" r="1169.6119" gradientTransform="matrix(1 0 0 0.8518 0 -56.9995)" gradientUnits="userSpaceOnUse">
			<stop  offset="0.4946" style="stop-color:#FAD681"/>
			<stop  offset="0.9677" style="stop-color:#FCCC8F"/>
		</radialGradient>
		<polygon fill="url(#SVGID_9_)" points="948.4,305.9 883.1,-384.1 828,-384.1 		"/>
		
			<radialGradient id="SVGID_10_" cx="967.3463" cy="436.5828" r="1169.627" gradientTransform="matrix(1 0 0 0.8518 0 -56.9995)" gradientUnits="userSpaceOnUse">
			<stop  offset="0.4946" style="stop-color:#FAD681"/>
			<stop  offset="0.9677" style="stop-color:#FCCC8F"/>
		</radialGradient>
		<polygon fill="url(#SVGID_10_)" points="936.9,313.7 716.3,-384.1 621.4,-384.1 		"/>
		
			<radialGradient id="SVGID_11_" cx="967.3464" cy="436.5829" r="1169.6311" gradientTransform="matrix(1 0 0 0.8518 0 -56.9995)" gradientUnits="userSpaceOnUse">
			<stop  offset="0.4946" style="stop-color:#FAD681"/>
			<stop  offset="0.9677" style="stop-color:#FCCC8F"/>
		</radialGradient>
		<polygon fill="url(#SVGID_11_)" points="916.2,315.6 521.9,-384.1 420.8,-384.1 		"/>
		
			<radialGradient id="SVGID_12_" cx="967.3465" cy="436.5831" r="1169.6333" gradientTransform="matrix(1 0 0 0.8518 0 -56.9995)" gradientUnits="userSpaceOnUse">
			<stop  offset="0.4946" style="stop-color:#FAD681"/>
			<stop  offset="0.9677" style="stop-color:#FCCC8F"/>
		</radialGradient>
		<polygon fill="url(#SVGID_12_)" points="907,325.4 307.5,-384.1 266.2,-384.1 		"/>
		
			<radialGradient id="SVGID_13_" cx="967.3461" cy="436.583" r="1169.6277" gradientTransform="matrix(1 0 0 0.8518 0 -56.9995)" gradientUnits="userSpaceOnUse">
			<stop  offset="0.4946" style="stop-color:#FAD681"/>
			<stop  offset="0.9677" style="stop-color:#FCCC8F"/>
		</radialGradient>
		<polygon fill="url(#SVGID_13_)" points="893.3,331.3 168.2,-384.1 57,-384.1 		"/>
		
			<radialGradient id="SVGID_14_" cx="967.3472" cy="436.5831" r="1169.637" gradientTransform="matrix(1 0 0 0.8518 0 -56.9995)" gradientUnits="userSpaceOnUse">
			<stop  offset="0.4946" style="stop-color:#FAD681"/>
			<stop  offset="0.9677" style="stop-color:#FCCC8F"/>
		</radialGradient>
		<polygon fill="url(#SVGID_14_)" points="877.4,336.5 1.3,-347.6 1.9,-291 		"/>
		
			<radialGradient id="SVGID_15_" cx="967.3458" cy="436.5831" r="1169.6193" gradientTransform="matrix(1 0 0 0.8518 0 -56.9995)" gradientUnits="userSpaceOnUse">
			<stop  offset="0.4946" style="stop-color:#FAD681"/>
			<stop  offset="0.9677" style="stop-color:#FCCC8F"/>
		</radialGradient>
		<polygon fill="url(#SVGID_15_)" points="866.7,347.6 2.9,-212.8 2.9,-114.6 		"/>
		
			<radialGradient id="SVGID_16_" cx="967.3466" cy="436.5833" r="1169.6343" gradientTransform="matrix(1 0 0 0.8518 0 -56.9995)" gradientUnits="userSpaceOnUse">
			<stop  offset="0.4946" style="stop-color:#FAD681"/>
			<stop  offset="0.9677" style="stop-color:#FCCC8F"/>
		</radialGradient>
		<polygon fill="url(#SVGID_16_)" points="849.9,353 2.6,-53.8 1.9,-7.6 		"/>
		<path fill="#FEF0D0" d="M1019.4,114.1c0-2.6,209.7-453.8,209.7-453.8l-169.9,442.1L1019.4,114.1z"/>
		<polygon fill="#FEF0D0" points="1050.6,189.6 1404.8,-226.8 1063.9,207.9 		"/>
		<polygon fill="#FEF0D0" points="1241.9,104.5 1761.4,-304.1 1255.2,120.1 1239.8,103.6 		"/>
		<polygon fill="#FEF0D0" points="1365.4,52.8 1791,-238 1371.5,76.2 		"/>
		<polygon fill="#FEF0D0" points="1004.1,185.6 1125,-342.3 1036.7,198.3 		"/>
		<path fill="#FEF0D0" d="M972.4,208.1c-25,3.2-2-555.7-2-555.7l24.5,558.8L972.4,208.1z"/>
		<polygon fill="#FEF0D0" points="851.1,122.8 684.2,-332.3 874,104.5 		"/>
		<polygon fill="#FEF0D0" points="762.2,108.8 436.6,-298.9 729.5,111.5 		"/>
		<polygon fill="#FEF0D0" points="638.7,54.9 302.9,-296.3 614.2,57.6 641.8,54.9 		"/>
		<polygon fill="#FEF0D0" points="616.7,140.1 90.7,-190.2 597.9,171.4 		"/>
		<polygon fill="#FEF0D0" points="544.1,168.2 106.2,-18.2 530.3,196.9 		"/>
		<path fill="#FEF0D0" d="M751.5,65.8c0-3.9-220.5-358.6-220.5-358.6L769.9,56.7L751.5,65.8z"/>
		<polygon fill="#FEF0D0" points="806.6,84.1 595.3,-338.4 829.6,71 		"/>
		<path fill="#FEF0D0" d="M886.6,143.7c0-5.2-102.6-412.1-102.6-412.1l131.7,405.5L886.6,143.7z"/>
		<polygon fill="#FEF0D0" points="981.1,168.3 1039.3,-343.6 1004.1,188.9 		"/>
		<polygon fill="#FEF0D0" points="1001,200.8 1271.1,-276.2 1026.3,208 		"/>
		<path fill="#FEF0D0" d="M1023.9,175.5c1.5-3.9,228.1-319.5,228.1-319.5l-217.4,344.3L1023.9,175.5z"/>
		<polygon fill="#FEF0D0" points="1094.7,194.5 1409.3,-104.8 1097,219.9 		"/>
		<polygon fill="#FEF0D0" points="1383.5,105.9 1753.2,-62.3 1397.3,131.3 		"/>
		<polygon fill="#FEF0D0" points="613.4,135.1 202.1,-259.4 661.6,132.3 		"/>
		<polygon fill="#FEF0D0" points="616.4,124.4 140.7,-218.5 595.8,142 		"/>
		<polygon fill="#FEF0D0" points="1450.4,131.7 1692.3,11.7 1456.5,143.4 		"/>
		<linearGradient id="SVGID_17_" gradientUnits="userSpaceOnUse" x1="839.9578" y1="94.4059" x2="817.2689" y2="265.4464">
			<stop  offset="0.4516" style="stop-color:#FEF9F4"/>
			<stop  offset="0.8817" style="stop-color:#FBEBDC"/>
		</linearGradient>
		<path fill="url(#SVGID_17_)" d="M561.3,169.2c-10.1-6.8,8.4-25.1,13.3-28.4c8.4-5.6,24.4-8.4,34-3.5c1.4-5.4-2.4-6.5,0.5-12
			c1.9-3.4,6.9-8,10.6-7.5c-1.4-14.3-4.3-31.2,2.9-44c5.6-9.9,16.2-23.3,26.8-26c12.2-3.1,29.4-1.1,37,11c5.5,8.8,4.1,8.4,14,6.7
			c8-1.3,10.4,2.2,14.3,9.6c1.4-7.3-1.5-11.5,5.8-15.2c4.5-2.3,13.4-3.4,17.7,0.1C726.7,28.4,756.5,5,783.1,9
			c25.4,3.9,48.9,35.8,33.5,63c5.2,1.1,10.8-1.3,14.9,3.8c3.5,4.4,2.5,11.5,2.2,17c7.7-5.4,15.3,4.1,22,4c1.4-10-0.7-17.1,9.8-21.4
			c8.6-3.5,15.4-0.6,22.3,5.2c-1.4-19.4,11.8-28.2,28.4-25.6c14.1,2.2,25.3,15.5,31.3,29.2c11.1,25.3,5.1,59.2-18.1,72.8
			c14.3-3.3,26.3,21,19.1,33.5c8.1-1.9,23.9,9.7,25,19c6.3-0.9,13.8-6.9,20.4-2.2c-2-19.6,7.2-35,23.6-41.8
			c12.8-5.3,30.8-5.4,33.4,13.6c15.8-1.1,29.5,3,38.1,19c8.4,15.9,8.6,37.1-1.3,52.2c-11.8,18-34.3,24.2-52.8,28.8
			c-37.1,9.2-75.4,12.1-113.2,15.7c-91.7,8.7-182.7,14-274.8,14.6c-24,0.2-51.1,3.2-74-7c-14.1-6.2-30.3-20.2-21.9-38.7
			c6.9-15.2,23.9-22.2,14.3-40.9c-4.2-8.1-9.9-15.1-11.2-24.7C552.9,187.7,557.2,178.1,561.3,169.2L561.3,169.2z"/>
		
			<linearGradient id="SVGID_18_" gradientUnits="userSpaceOnUse" x1="506.2707" y1="143.1582" x2="698.675" y2="421.5035" gradientTransform="matrix(0.9986 5.314386e-02 -5.314386e-02 0.9986 6.2016 -35.3325)">
			<stop  offset="5.913980e-02" style="stop-color:#FFF8F3"/>
			<stop  offset="0.3118" style="stop-color:#FBEBDC"/>
			<stop  offset="0.3457" style="stop-color:#FAE7D4"/>
			<stop  offset="0.5079" style="stop-color:#F7D7B2"/>
			<stop  offset="0.6576" style="stop-color:#F4CB99"/>
			<stop  offset="0.7887" style="stop-color:#F3C48A"/>
			<stop  offset="0.8871" style="stop-color:#F2C184"/>
		</linearGradient>
		<path fill="url(#SVGID_18_)" d="M392.9,288.7c-7.6-2.3-15-13.8-12.1-22.5c2.5-7.4,12.3-12.8,21.2-12.4c-1.2-2.8-1.5-6-0.6-9
			c2.2-0.6,4.3-1.2,5.6-2.3c-8.7-2.8-14.4-15.3-11.9-23.3c3-9.8,10.3-10.9,19.6-11.9c1.2-9.2-0.1-17,7.2-24.3
			c6.1-6.1,14.6-9.1,23.3-11.2c17.6-4.2,34.7,3.2,33.9,21.3c6.2,1.2,12.4-0.6,16.9,3.7c-0.8-7.3,10.4-4.4,15.1-4.7
			c0.1-5.5-5-9.1-3.4-15.4c1.9-7.3,6-9.7,13.5-9.6c0.5-9.2-1.4-15.3,7.1-21.9c6.6-5.1,14.5-8.1,23.1-8.5c21.2-1,26.5,14.9,26,30.8
			c5.8-2,13.4-1.4,17.3,3.3c-2.1-8.4,11.5-11.5,17.8-8.5c1.6-6-0.3-9.3,5.6-13.3c5.4-3.7,13.4-5.2,20-5.7c5.8-0.4,9.7-0.8,14.6,2.6
			c5.3,3.6,3.8,5.4,4.6,11c10,2,21.3,2.4,23.9,14.2c2.4,11-5.8,15.2-11.2,22.8c4.9,0,8.6,2.6,9.8,7.1c-0.7-8.2,26.8-14.6,25.1-2.7
			c-0.9-5,8.2-9.2,12.4-10.8c7.2-2.6,13.1-1.5,20.4-2.1c-1.5-11-3.7-19.7,8.7-27c5.8-3.4,33.5-10.5,32.8,2.4
			c8.5-7.2,22.1,1.4,26.7,9c5.4,9,3.1,18.7-3.3,26c4.4,5.3,1.2,10.8,4.5,16c23.3-5.1,38.8,3.7,43.8,25.9c4.7,20.6-4.4,38.1-14,56.1
			c-8.8,16.5-16.3,31.6-33.3,42.5c-23.4,15-51.4,20.6-79.6,21.7c-29.4,1.1-59.4,3.4-88.9,2.3c-21-0.8-41-4.7-62.1-3.4
			c-21,1.3-40.9-2.1-61.7-2.4c-18.3-0.3-40,6.5-55.7-5.3c-6.6-4.9-17.5,19.9-25.7,16.8c-9.9-3.7-26-4.3-36.5-4.6
			c-61.4-1.8-47.1-30.6-47.3-41.1c-0.4-18.2,24.3-33.9,44.1-31.7L392.9,288.7z"/>
		<linearGradient id="SVGID_19_" gradientUnits="userSpaceOnUse" x1="1465.8053" y1="77.0975" x2="1432.3674" y2="290.0414">
			<stop  offset="5.913980e-02" style="stop-color:#FFF8F3"/>
			<stop  offset="0.4086" style="stop-color:#FBEBDC"/>
			<stop  offset="0.4408" style="stop-color:#FAE7D4"/>
			<stop  offset="0.5955" style="stop-color:#F7D7B2"/>
			<stop  offset="0.7382" style="stop-color:#F4CB99"/>
			<stop  offset="0.8632" style="stop-color:#F3C48A"/>
			<stop  offset="0.957" style="stop-color:#F2C184"/>
		</linearGradient>
		<path fill="url(#SVGID_19_)" d="M1288.5,116.5c-4.6-4.6-9.2-14.2-7-21c3.5-10.6,13.9-9.9,13.9-9.9s-7.6-7.7-5.5-19.7
			c1.2-6.7,6.5-16.1,10.6-21.1c8.3-10.3,28.3-12.8,39.9-7.8c13.4,5.8,14.7,19.6,14.9,33.5c2.3-3.9,6.9-2.9,10.5-1.2
			c2.5,1.2,4.6,5.9,6.7,7.8c-0.5-7.4,12-17.2,16.1-8.4c6.6-14.7,16.8-25.4,28.1-28.9c13.5-4.2,25-1.9,36.5,8.8
			c9.7,9,14.8,20.5,16.8,34.4c2.3,15.5-2.2,24.4-9.9,36.7c4.4,0.9,9.2-0.4,13.7,0.3c5.4,0.9,6.8,3,10.8,6.9
			c1.6-13.6,21.8-20,27.4-7.5c-0.5-15,9.7-23,21.9-26.2c13.2-3.5,29.6,4.7,38.6,15.7c13.5,16.5,10,41.9-4.9,58.3
			c7-2.7,10-3.9,16.1-0.6c7.7,4.2,4.9,13.4,7,15.5c1.3-12.3,25.4-21.1,31.7-3.5c0.3,43.7,0,97.9,0,140.2c0,18.4-6.4,17.4-23,25.7
			c-22.6,11.2-51.8,9.3-75.9,10.3c-53.7,2.1-107.4,2.1-161,6c-24.1,1.7-53.1,5.7-74.9-8.6c-24-15.8-29.4-50.7-32.2-78.9
			c-5.3-54.1-9.9-122.6,29.8-162L1288.5,116.5z"/>
		<linearGradient id="SVGID_20_" gradientUnits="userSpaceOnUse" x1="1801.0958" y1="72.4802" x2="1813.1245" y2="421.2984">
			<stop  offset="0.1667" style="stop-color:#EB953D"/>
			<stop  offset="0.6237" style="stop-color:#F0AD51"/>
			<stop  offset="0.9677" style="stop-color:#F6C173"/>
		</linearGradient>
		<polygon fill="url(#SVGID_20_)" points="1621.2,188.6 1698.6,186.9 1700.2,129.3 1764.4,107.9 1764.4,254.4 1797.4,254.4 
			1799,172.1 1845.1,142.5 1892.9,170.5 1891.2,216.6 1927.4,228.1 1927.6,-13.3 1952.1,-13.3 1953.8,-45.2 1991.6,-45.2 
			1994.3,360.9 1616.4,360.9 		"/>
		<linearGradient id="SVGID_21_" gradientUnits="userSpaceOnUse" x1="958.2493" y1="480.8919" x2="966.6641" y2="1044.6763">
			<stop  offset="0" style="stop-color:#99C169"/>
			<stop  offset="0.5" style="stop-color:#679632"/>
			<stop  offset="1" style="stop-color:#507D26"/>
		</linearGradient>
		<rect x="1.3" y="468.7" fill="url(#SVGID_21_)" width="1922.6" height="611.3"/>
		<linearGradient id="SVGID_22_" gradientUnits="userSpaceOnUse" x1="231.6592" y1="21.7502" x2="238.5469" y2="324.8229">
			<stop  offset="0.1667" style="stop-color:#EB953D"/>
			<stop  offset="0.6237" style="stop-color:#F0AD51"/>
			<stop  offset="0.9677" style="stop-color:#F6C173"/>
		</linearGradient>
		<polygon fill="url(#SVGID_22_)" points="1.8,378.3 0.8,116 46,115.5 47.5,189 76.4,188.5 75.4,116 125.1,115 126.1,186.4 
			138.2,200.7 138.2,246.1 165.6,246.1 164.1,122.1 182.4,111.4 183.9,40.5 194,29.2 199.1,-18.7 205.2,-18.7 209.7,28.7 
			220.4,39.5 224.9,109.9 242.7,122.1 243.7,208.9 263,209.4 263,80.8 281.7,49.1 294.9,48.6 295.9,35.4 325.8,23.1 326.9,49.1 
			340,49.7 342.1,122.1 386.7,121.1 387.7,157.3 467.8,155.8 477.5,368.6 		"/>
		<g id="XMLID_5_">
			<g>
				<linearGradient id="SVGID_23_" gradientUnits="userSpaceOnUse" x1="-49" y1="436.876" x2="1953.3365" y2="436.876">
					<stop  offset="6.451610e-02" style="stop-color:#EE8D35"/>
					<stop  offset="0.3978" style="stop-color:#DE7D15"/>
					<stop  offset="0.9247" style="stop-color:#CB5517"/>
				</linearGradient>
				<polygon fill="url(#SVGID_23_)" points="1953.3,414.1 1952.7,457.3 -49,460.9 -49,412.9 				"/>
				<polygon fill="#D16217" points="1952,468.5 1952,481.1 -44.2,478.6 -46.6,471 				"/>
				<linearGradient id="SVGID_24_" gradientUnits="userSpaceOnUse" x1="1012.7322" y1="397.1205" x2="1016.4714" y2="107.3473">
					<stop  offset="6.451610e-02" style="stop-color:#EE8D35"/>
					<stop  offset="0.3978" style="stop-color:#DE7D15"/>
					<stop  offset="0.9247" style="stop-color:#CB5517"/>
				</linearGradient>
				<path fill="url(#SVGID_24_)" d="M1406.5,336.9l0.6,70.7l-787.5-1.5l-0.5-66.3l5.2-3.1l8.6,0.2l4.6,2.9l0.4,14.4l31.4-0.1h6.5
					l307.1-0.5l-0.7-117.8l-0.4-63.7l0-3.3h15.4c0,0,0.7-4.6,3-8.7c3.2-5.9,8.8-11.7,18.8-11.7c9.8,0,14.7,3.8,17.7,8.7
					c3.9,6.4,4.1,10.2,4.1,10.2h14.4l0,3.1l0.5,66.5l0.9,116l301.4-0.8l5.7,0l25-0.1v-16l5.5-2.6l7.5,0.2L1406.5,336.9z
					 M1036.3,171.4c0-9.7-7.7-17.5-17.1-17.5c-9.5,0-17.1,7.8-17.1,17.5c0,9.7,7.7,17.5,17.1,17.5
					C1028.7,188.9,1036.3,181,1036.3,171.4z"/>
				<linearGradient id="SVGID_25_" gradientUnits="userSpaceOnUse" x1="1216.7156" y1="399.7232" x2="1220.4515" y2="110.1994">
					<stop  offset="6.451610e-02" style="stop-color:#EE8D35"/>
					<stop  offset="0.3978" style="stop-color:#DE7D15"/>
					<stop  offset="0.9247" style="stop-color:#CB5517"/>
				</linearGradient>
				<path fill="url(#SVGID_25_)" d="M1331,171.6l52.5,61.2l-0.6,4.9l-18.8,0l-6.1,0l-27.8-0.1l-5.8,0l-267.3-0.6l-1.6,0l-0.5-66.5
					h0.3c0,0,35.7-0.1,80.8-0.2l3.2,0.4v-0.4c3.8,0,7.6,0,11.5,0l-2.1,1.8l0.1,7.1l-34.7,35h6.6l0.3-0.3l61.3-0.5l0.3,0.3l6.5-0.1
					l-32.4-33.8v-7.7l-1.9-1.5l0.3-0.3c36.7-0.1,77-0.2,108.5-0.2l-2.1,1.8l0.2,7.1l-34,34.3l6,0.1h0.1l61.5-0.3l0.3,0.3l6.5-0.1
					l-32.4-33.7v-7.7l-1.6-1.3l0.4-0.5c30.4-0.1,51.6-0.1,51.6-0.1l0.2-9.5l3.7-1.5c0,0-4.1-2.3-4.1-5.6c0-3.8,5.2-6.6,5.2-6.6
					l2.6,0.1c0,0,4.6,2.9,4.6,6.7c0,3.3-4.4,5.5-4.4,5.5l3.9,1.5L1331,171.6z"/>
				<linearGradient id="SVGID_26_" gradientUnits="userSpaceOnUse" x1="1342.6956" y1="401.8332" x2="1346.4382" y2="111.7905">
					<stop  offset="6.451610e-02" style="stop-color:#EE8D35"/>
					<stop  offset="0.3978" style="stop-color:#DE7D15"/>
					<stop  offset="0.9247" style="stop-color:#CB5517"/>
				</linearGradient>
				<path fill="url(#SVGID_26_)" d="M1364.1,237.7l-0.6,113.7v0.8l-5.7,0l0-2.8l-0.2-0.3l0.4-0.3c0-40.7,0-38.7,0-75.1l0,0
					l-33.6-35.3l0-0.9l5.8,0l27.8,28.2c0-14.5,0-25.7,0-28.1L1364.1,237.7z"/>
				<linearGradient id="SVGID_27_" gradientUnits="userSpaceOnUse" x1="1205.3843" y1="399.8065" x2="1209.1217" y2="110.1702">
					<stop  offset="6.451610e-02" style="stop-color:#EE8D35"/>
					<stop  offset="0.3978" style="stop-color:#DE7D15"/>
					<stop  offset="0.9247" style="stop-color:#CB5517"/>
				</linearGradient>
				<polygon fill="url(#SVGID_27_)" points="1357.9,349.4 1357.9,352.3 1056.5,353.1 1055.6,237 1057.2,237 1324.6,237.6 
					1324.5,238.5 1323.5,301.3 1323.6,301.3 1357.7,349.2 				"/>
				<linearGradient id="SVGID_28_" gradientUnits="userSpaceOnUse" x1="1262.4435" y1="400.649" x2="1266.1849" y2="110.7065">
					<stop  offset="6.451610e-02" style="stop-color:#EE8D35"/>
					<stop  offset="0.3978" style="stop-color:#DE7D15"/>
					<stop  offset="0.9247" style="stop-color:#CB5517"/>
				</linearGradient>
				<path fill="url(#SVGID_28_)" d="M1269.6,179.6l32.4,33.7l-6.5,0.1l-0.3-0.3l-29.8-29.6l-31.7,29.9h-0.1l-6-0.1l34-34.3l-0.2-7.1
					l2.1-1.8l0.3-0.2c0,0-2.3-1.4-2.5-2.3c-0.6-3.6,3.3-6.3,3.3-6.3s4.4,2.2,4.6,6.4c0,0.8-2.6,1.9-2.6,1.9l1.3,1l1.6,1.3V179.6z"/>
				<linearGradient id="SVGID_29_" gradientUnits="userSpaceOnUse" x1="1262.0823" y1="400.5933" x2="1265.8226" y2="110.7298">
					<stop  offset="6.451610e-02" style="stop-color:#EE8D35"/>
					<stop  offset="0.3978" style="stop-color:#DE7D15"/>
					<stop  offset="0.9247" style="stop-color:#CB5517"/>
				</linearGradient>
				<polygon fill="url(#SVGID_29_)" points="1295.3,213.2 1233.7,213.4 1265.4,183.6 				"/>
				<linearGradient id="SVGID_30_" gradientUnits="userSpaceOnUse" x1="1262.3894" y1="400.8616" x2="1266.1339" y2="110.681">
					<stop  offset="6.451610e-02" style="stop-color:#EE8D35"/>
					<stop  offset="0.3978" style="stop-color:#DE7D15"/>
					<stop  offset="0.9247" style="stop-color:#CB5517"/>
				</linearGradient>
				<path fill="url(#SVGID_30_)" d="M1284.3,120.8c4.9,1.7,10.3,4.7,9.6,10.6c-1.3,0.3-2.8-0.6-4.2-0.3c-1.4,0.3-2.8,1.5-3.7,2.5
					c-2,2.4-1.8,4.2,0,6.6c3.1,4.2,4.6,10.8,0.7,15.2c-0.2-2.2,0.1-3.9-1.5-5.6c-1.6-1.7-3.6-2.7-5.8-3.2c-4.3-1-9-0.6-13.4-0.6
					c-4.7,0-7.9-2.2-8.1-7.1c-0.1-2,0.1-4.6-1.3-6.2c-1.4-1.6-3.3-2.1-5.2-2.4c-3.7-0.7-9.9-1.2-12.4,2.3l-0.8-32.1
					c5.7-0.1,11.5-0.3,17.1,0.2c4,0.4,12-0.1,13.8,4.8c1.5,4.1-4.8,10.4,0.1,13.8c1.8,1.3,5.1,0.6,7.2,0.6
					C1278.9,119.7,1281.9,119.9,1284.3,120.8z"/>
				<linearGradient id="SVGID_31_" gradientUnits="userSpaceOnUse" x1="1234.0936" y1="400.359" x2="1237.8365" y2="110.3021">
					<stop  offset="6.451610e-02" style="stop-color:#EE8D35"/>
					<stop  offset="0.3978" style="stop-color:#DE7D15"/>
					<stop  offset="0.9247" style="stop-color:#CB5517"/>
				</linearGradient>
				<path fill="url(#SVGID_31_)" d="M1238.9,132.6l0.9,37.4h-3.3l-1.4-70.5l2.9,0.1l0,0.8l0.8,32.1c-0.1,0.1-0.1,0.1-0.1,0.2
					C1238.9,132.7,1238.9,132.6,1238.9,132.6z"/>
				<linearGradient id="SVGID_32_" gradientUnits="userSpaceOnUse" x1="1165.4126" y1="399.5588" x2="1169.1572" y2="109.3624">
					<stop  offset="6.451610e-02" style="stop-color:#EE8D35"/>
					<stop  offset="0.3978" style="stop-color:#DE7D15"/>
					<stop  offset="0.9247" style="stop-color:#CB5517"/>
				</linearGradient>
				<path fill="url(#SVGID_32_)" d="M1198.5,126.7c-2.7-0.1-5.3,1.6-6.5,4c-0.7,1.4-0.8,2.9-0.7,4.4c0.1,1.5,1,2.7,1.2,4.1
					c0.8,6.3-1.8,12.3-7.7,15.1c-0.5-2.1,0.9-3.5-0.6-5.5c-1-1.4-2.4-2.6-4-3.3c-1.5-0.6-4.1-0.7-5.7-0.7c-2,0-4.1-0.3-5.9-1.2
					c-6.1-3.1-9.9-9.5-15.9-12.9c-3.8-2.1-8.7-3.1-13-2.1l0.1-28c9.2,0,19.2,0.1,26.9,5.6c3.7,2.6,5.9,6.3,8.6,9.7
					c1.1,1.4,2.6,3.3,4.3,4.3c1.9,1.1,4,1.5,6.2,1.9c2.5,0.5,4.9,0.6,7.2,1.4C1194.6,124.3,1197.4,125.3,1198.5,126.7z"/>
				<linearGradient id="SVGID_33_" gradientUnits="userSpaceOnUse" x1="1149.3068" y1="399.102" x2="1153.0479" y2="109.1792">
					<stop  offset="6.451610e-02" style="stop-color:#EE8D35"/>
					<stop  offset="0.3978" style="stop-color:#DE7D15"/>
					<stop  offset="0.9247" style="stop-color:#CB5517"/>
				</linearGradient>
				<path fill="url(#SVGID_33_)" d="M1156.7,179.8l32.4,33.8l-6.5,0.1l-0.3-0.3l-29.8-29.6l-31.5,30.1l-0.3,0.3h-6.6l34.7-35
					l-0.1-7.1l2.1-1.8l0.3-0.2c0,0-2.5-2.2-2.6-3.1c-0.3-3.6,3.9-6.6,3.9-6.6s4.7,2.6,4.1,6.8c-0.1,0.8-2.6,2.6-2.6,2.6l1,0.8
					l1.9,1.5V179.8z"/>
				<linearGradient id="SVGID_34_" gradientUnits="userSpaceOnUse" x1="1149.3929" y1="399.0689" x2="1153.1333" y2="109.2054">
					<stop  offset="6.451610e-02" style="stop-color:#EE8D35"/>
					<stop  offset="0.3978" style="stop-color:#DE7D15"/>
					<stop  offset="0.9247" style="stop-color:#CB5517"/>
				</linearGradient>
				<polygon fill="url(#SVGID_34_)" points="1182.4,213.5 1121.1,214 1152.6,183.8 				"/>
				<linearGradient id="SVGID_35_" gradientUnits="userSpaceOnUse" x1="1134.1044" y1="398.9966" x2="1137.847" y2="108.9524">
					<stop  offset="6.451610e-02" style="stop-color:#EE8D35"/>
					<stop  offset="0.3978" style="stop-color:#DE7D15"/>
					<stop  offset="0.9247" style="stop-color:#CB5517"/>
				</linearGradient>
				<path fill="url(#SVGID_35_)" d="M1139.7,100.8l-0.1,28l-0.2,41.6c-1.1,0-2.1,0-3.2,0l-0.2,0l-0.4-69.2L1139.7,100.8z
					 M1139.3,128.8C1139.3,128.8,1139.3,128.8,1139.3,128.8C1139,128.8,1139,128.8,1139.3,128.8z"/>
				<linearGradient id="SVGID_36_" gradientUnits="userSpaceOnUse" x1="1134.8198" y1="398.9224" x2="1138.5612" y2="108.9853">
					<stop  offset="6.451610e-02" style="stop-color:#EE8D35"/>
					<stop  offset="0.3978" style="stop-color:#DE7D15"/>
					<stop  offset="0.9247" style="stop-color:#CB5517"/>
				</linearGradient>
				<path fill="url(#SVGID_36_)" d="M1139.3,170.4v0.4l-3.2-0.4C1137.2,170.4,1138.3,170.4,1139.3,170.4z"/>
				<polygon fill="#D16217" points="766.9,503.9 -54.3,503.9 -61.4,495 -56,495.1 				"/>
				<linearGradient id="SVGID_37_" gradientUnits="userSpaceOnUse" x1="1014.3984" y1="397.297" x2="1018.1403" y2="107.3211">
					<stop  offset="6.451610e-02" style="stop-color:#EE8D35"/>
					<stop  offset="0.3978" style="stop-color:#DE7D15"/>
					<stop  offset="0.9247" style="stop-color:#CB5517"/>
				</linearGradient>
				<path fill="url(#SVGID_37_)" d="M1022.8,108.8l41.7,54.6l-9.1,1.1l-0.4,0.3l-38.3-47.3l-35,47v0.7h-0.4l-11-0.7l40.1-56.1
					l0.5-19l3-2.5c0,0-4.7-2.2-4.7-6c0-3.8,3.6-5.5,3.6-5.5h6.1c0,0,4.1,1.9,3.9,5.7c-0.3,3.8-3.9,5.5-3.9,5.5l2.8,3L1022.8,108.8z"
					/>
				<linearGradient id="SVGID_38_" gradientUnits="userSpaceOnUse" x1="1015.4004" y1="397.2753" x2="1019.1417" y2="107.3452">
					<stop  offset="6.451610e-02" style="stop-color:#EE8D35"/>
					<stop  offset="0.3978" style="stop-color:#DE7D15"/>
					<stop  offset="0.9247" style="stop-color:#CB5517"/>
				</linearGradient>
				<path fill="url(#SVGID_38_)" d="M1055,164.9l0,2.6h-14.4c0,0-0.2-3.9-4.1-10.2c-3-4.9-7.9-8.7-17.7-8.7
					c-10,0-15.6,5.8-18.8,11.7c-2.2,4.1-3,8.7-3,8.7h-15.4l0-3.6v-0.7l35-47L1055,164.9L1055,164.9z"/>
				<linearGradient id="SVGID_39_" gradientUnits="userSpaceOnUse" x1="1016.2881" y1="397.4078" x2="1020.031" y2="107.3548">
					<stop  offset="6.451610e-02" style="stop-color:#EE8D35"/>
					<stop  offset="0.3978" style="stop-color:#DE7D15"/>
					<stop  offset="0.9247" style="stop-color:#CB5517"/>
				</linearGradient>
				<path fill="url(#SVGID_39_)" d="M1019.2,153.9c9.5,0,17.1,7.8,17.1,17.5c0,9.7-7.7,17.5-17.1,17.5c-9.5,0-17.1-7.8-17.1-17.5
					C1002.1,161.7,1009.7,153.9,1019.2,153.9z"/>
				<linearGradient id="SVGID_40_" gradientUnits="userSpaceOnUse" x1="828.75" y1="394.7071" x2="832.4869" y2="105.1173">
					<stop  offset="6.451610e-02" style="stop-color:#EE8D35"/>
					<stop  offset="0.3978" style="stop-color:#DE7D15"/>
					<stop  offset="0.9247" style="stop-color:#CB5517"/>
				</linearGradient>
				<polygon fill="url(#SVGID_40_)" points="982.2,235.9 982.8,353.6 675.7,354.1 675.7,353.6 675.8,353.5 712.9,282.1 711.8,237.8 
					711.8,237.6 981.5,235.9 				"/>
				<linearGradient id="SVGID_41_" gradientUnits="userSpaceOnUse" x1="813.8516" y1="394.4784" x2="817.5925" y2="104.5795">
					<stop  offset="6.451610e-02" style="stop-color:#EE8D35"/>
					<stop  offset="0.3978" style="stop-color:#DE7D15"/>
					<stop  offset="0.9247" style="stop-color:#CB5517"/>
				</linearGradient>
				<path fill="url(#SVGID_41_)" d="M981.8,172.2l0.4,63.7h-0.7l-269.6,1.8l-8.8,0.1l-5,0l-26.5,0.2l-6.1,0l-15.7,0.1v-5.1
					l70.7-58.7v-11.7l2.8-0.8c0,0-4.1-1.9-4.1-4.9c0-4.7,6.1-7.4,6.1-7.4h0.3c0,0,5.5,2.7,5.8,6.8c0.2,3-3.8,5.6-3.8,5.6l2.6,0.7
					v10.9c0,0,20-0.1,48.8-0.2l-1.2,1l0.1,7.1l-34,34.3l6,0.1h0.1l61.5-0.3l0.3,0.3l6.5-0.1L785.6,182v-7.7l-1.3-1.1
					c6.7,0,13.8-0.1,21.2-0.1l0.6,0.1v-0.1c27-0.1,57.7-0.3,85.7-0.4l-1.4,1.3l0.1,7.1l-34,34.3l6,0.1l0.3-0.3h61.2l0.3,0.3l6.5-0.1
					l-32.5-33.7v-7.7l-1.7-1.4C944,172.5,981.7,172.2,981.8,172.2L981.8,172.2z"/>
				<linearGradient id="SVGID_42_" gradientUnits="userSpaceOnUse" x1="939.226" y1="396.5084" x2="942.9708" y2="106.3036">
					<stop  offset="6.451610e-02" style="stop-color:#EE8D35"/>
					<stop  offset="0.3978" style="stop-color:#DE7D15"/>
					<stop  offset="0.9247" style="stop-color:#CB5517"/>
				</linearGradient>
				<path fill="url(#SVGID_42_)" d="M971.4,142.5c0.3,2.8-0.2,7-2.5,8.9c-0.3-1.1,0.2-1.9-0.8-2.9c-0.8-0.8-1.9-0.9-3-1.1
					c-2-0.5-4-0.3-6.1,0c-3.9,0.6-8.8,1.3-12.7,0.3c-4.6-1.2-7.8-4.1-10.9-7.8c-2.7-3.3-5.3-5.7-9.3-7.3c-3.1-1.3-8.4-2.7-11.9-1.4
					v-0.1l-0.3-29c1.6,0.7,4.4,0.1,5.9-0.2c1.9-0.3,3.9-0.8,5.9-1c4-0.4,8.9,0.6,12.4,2.8c4.1,2.5,5.9,6,8.3,9.8
					c2,3.1,5.9,6.4,9.7,7c4.7,0.7,9.8-0.2,12.7-4.2c2,3.1,1.5,5.3,0.4,8.6c-1,2.9-2.2,5.7-1.1,8.9
					C969.1,136.7,971.1,139.3,971.4,142.5z"/>
				<linearGradient id="SVGID_43_" gradientUnits="userSpaceOnUse" x1="891.3546" y1="395.6282" x2="895.096" y2="105.6839">
					<stop  offset="6.451610e-02" style="stop-color:#EE8D35"/>
					<stop  offset="0.3978" style="stop-color:#DE7D15"/>
					<stop  offset="0.9247" style="stop-color:#CB5517"/>
				</linearGradient>
				<path fill="url(#SVGID_43_)" d="M898.4,181.7l32.5,33.7l-6.5,0.1l-0.3-0.3l-29.8-29.6l-31.4,29.6l-0.3,0.3l-6-0.1l34-34.3
					l-0.1-7.1l1.4-1.3l0.9-0.8c0,0-2.8-1.6-2.9-2.6c-0.3-2,4-6.8,4-6.8s3.4,3.3,3.9,6.8c0.3,1.9-2.2,2.3-2.2,2.3l1.2,1l1.7,1.4
					V181.7z"/>
				<linearGradient id="SVGID_44_" gradientUnits="userSpaceOnUse" x1="891.1266" y1="395.569" x2="894.8669" y2="105.7153">
					<stop  offset="6.451610e-02" style="stop-color:#EE8D35"/>
					<stop  offset="0.3978" style="stop-color:#DE7D15"/>
					<stop  offset="0.9247" style="stop-color:#CB5517"/>
				</linearGradient>
				<polygon fill="url(#SVGID_44_)" points="924.1,215.4 862.9,215.4 894.2,185.8 				"/>
				<linearGradient id="SVGID_45_" gradientUnits="userSpaceOnUse" x1="909.3512" y1="395.959" x2="913.094" y2="105.9052">
					<stop  offset="6.451610e-02" style="stop-color:#EE8D35"/>
					<stop  offset="0.3978" style="stop-color:#DE7D15"/>
					<stop  offset="0.9247" style="stop-color:#CB5517"/>
				</linearGradient>
				<path fill="url(#SVGID_45_)" d="M914.3,131.2l0.4,41l-4.1,0.4v-71l3.3,0.4v0.2l0.3,29c-0.1,0.1-0.1,0.1-0.1,0.2
					c-0.3,0.1-0.6,0.3-0.9,0.4c0.4,0,0.6-0.2,0.9-0.4C914.2,131.2,914.2,131.2,914.3,131.2z"/>
				<linearGradient id="SVGID_46_" gradientUnits="userSpaceOnUse" x1="825.4506" y1="394.8762" x2="829.1942" y2="104.7565">
					<stop  offset="6.451610e-02" style="stop-color:#EE8D35"/>
					<stop  offset="0.3978" style="stop-color:#DE7D15"/>
					<stop  offset="0.9247" style="stop-color:#CB5517"/>
				</linearGradient>
				<path fill="url(#SVGID_46_)" d="M844.2,139.6c3.5,2.7,8.5,8.5,7.9,13.2c-2-1.5-6.4-0.1-8.1,1c-1,0.7-2.3,1.4-3.1,2.4
					c-0.7,0.8-1,2-1.7,2.8c-0.6,0.7-1.8,1.9-2.8,1.8c-1.1-0.1-2.4-1-3.5-1.1c-3.1-0.2-4.6,1.8-5.7,4.3c0.1-3.2-0.1-5.6-1.7-8.4
					c-1.3-2.2-3-4.4-5.1-5.8c-2.2-1.5-5.1-2.2-6.2-5c-0.5-1.2-0.4-3.1-0.6-4.4c-0.2-1.6-0.3-2.8-1-4.3c-1-2-3.8-5.3-6.4-4.8
					c-0.1,0-0.1,0-0.2,0l-0.2-29.1c2.5,0.1,4.6,0.2,7,1.1c2.4,0.9,5.2,2.5,7.2,4.1c4.2,3.4,6.5,8.7,7.3,13.7c0.8,4.9,1,9.6,5.7,12.5
					c1.9,1.2,4.2,1.6,6.1,2.7C840.8,137.3,842.6,138.4,844.2,139.6z"/>
				<linearGradient id="SVGID_47_" gradientUnits="userSpaceOnUse" x1="778.5544" y1="394.0999" x2="782.2958" y2="104.1583">
					<stop  offset="6.451610e-02" style="stop-color:#EE8D35"/>
					<stop  offset="0.3978" style="stop-color:#DE7D15"/>
					<stop  offset="0.9247" style="stop-color:#CB5517"/>
				</linearGradient>
				<path fill="url(#SVGID_47_)" d="M785.6,182l32.4,33.8l-6.5,0.1l-0.3-0.3L781.4,186l-31.7,29.9h-0.1l-6-0.1l34-34.3l-0.1-7.1
					l1.2-1l1.2-1c0,0-2.7-1.6-2.9-2.6c-0.3-1.9,3.9-6.6,3.9-6.6s4.8,4.9,4.4,7c-0.2,0.8-2.6,1.9-2.6,1.9l1.6,1.3l1.3,1.1V182z"/>
				<linearGradient id="SVGID_48_" gradientUnits="userSpaceOnUse" x1="778.1934" y1="394.042" x2="781.9337" y2="104.1867">
					<stop  offset="6.451610e-02" style="stop-color:#EE8D35"/>
					<stop  offset="0.3978" style="stop-color:#DE7D15"/>
					<stop  offset="0.9247" style="stop-color:#CB5517"/>
				</linearGradient>
				<polygon fill="url(#SVGID_48_)" points="811.2,215.6 749.7,215.9 781.4,186 				"/>
				<linearGradient id="SVGID_49_" gradientUnits="userSpaceOnUse" x1="800.7447" y1="394.4896" x2="804.4875" y2="104.437">
					<stop  offset="6.451610e-02" style="stop-color:#EE8D35"/>
					<stop  offset="0.3978" style="stop-color:#DE7D15"/>
					<stop  offset="0.9247" style="stop-color:#CB5517"/>
				</linearGradient>
				<path fill="url(#SVGID_49_)" d="M805.9,131.4l0.2,41.8c-0.2,0-0.4,0-0.6,0l-3.4-0.3v-71h3.7v0.4L805.9,131.4z"/>
				<linearGradient id="SVGID_50_" gradientUnits="userSpaceOnUse" x1="682.1997" y1="392.8667" x2="685.9418" y2="102.867">
					<stop  offset="6.451610e-02" style="stop-color:#EE8D35"/>
					<stop  offset="0.3978" style="stop-color:#DE7D15"/>
					<stop  offset="0.9247" style="stop-color:#CB5517"/>
				</linearGradient>
				<path fill="url(#SVGID_50_)" d="M703,237.7L703,237.7l-29.8,42.4c1.1,34.5,2.2,73.1,2.2,73.1l0.4,0.2l-0.1,0.1v0.5h-6.5
					l-3.8-115.8v-0.4l6.1,0c0.1,1.5,0.7,14.9,1.3,33.8l0.5,0.4l24.7-33.7v-0.6L703,237.7z"/>
			</g>
		</g>
		<linearGradient id="SVGID_51_" gradientUnits="userSpaceOnUse" x1="-29.0838" y1="359.9154" x2="1941.964" y2="362.3018">
			<stop  offset="1.123600e-02" style="stop-color:#F8ECD7"/>
			<stop  offset="0.5" style="stop-color:#F1DCB1"/>
			<stop  offset="0.9944" style="stop-color:#C5B699"/>
		</linearGradient>
		<rect x="-46.6" y="350.5" fill="url(#SVGID_51_)" width="1999.9" height="21.1"/>
		<rect x="544.8" y="372.3" fill="#FAE0C3" width="8.7" height="99.9"/>
		<rect x="1395" y="372.3" fill="#FAE0C3" width="8.7" height="96.3"/>
	</g>
</g>
<g id="Punters">
	<g id="desktop-nav-2016.09.27">
		<g id="punterslogodesktop" transform="translate(0.000000, -1.000000)">
			<g id="Group-3" transform="translate(0.000000, 0.122000)">
				<g id="Clip-2">
				</g>
				<defs>
					<filter id="Adobe_OpacityMaskFilter" filterUnits="userSpaceOnUse" x="807.5" y="251.1" width="86.4" height="86.4">
						<feColorMatrix  type="matrix" values="1 0 0 0 0  0 1 0 0 0  0 0 1 0 0  0 0 0 1 0"/>
					</filter>
				</defs>
				<mask maskUnits="userSpaceOnUse" x="807.5" y="251.1" width="86.4" height="86.4" id="mask-2_1_">
					<g filter="url(#Adobe_OpacityMaskFilter)">
						<polygon id="path-1_1_" fill="#FFFFFF" points="893.9,251.1 807.5,251.1 807.5,337.5 893.9,337.5 						"/>
					</g>
				</mask>
				<path id="Fill-1" mask="url(#mask-2_1_)" fill="#53B04C" d="M874.1,251.1h-46.8c-10.9,0-19.8,8.9-19.8,19.8v46.8
					c0,10.9,8.9,19.8,19.8,19.8h46.8c10.9,0,19.8-8.9,19.8-19.8v-46.8C893.9,260,885,251.1,874.1,251.1"/>
			</g>
			<path id="Fill-4" fill="#FFFFFF" d="M934,292.6c0,3.2,0.9,5.8,2.8,7.8c1.8,2,4.4,3,7.7,3c3.3,0,5.9-1,7.7-3
				c1.8-2,2.8-4.6,2.8-7.8c0-3.2-0.9-5.8-2.8-7.8c-1.8-2-4.4-3-7.7-3c-3.3,0-5.9,1-7.7,3C934.9,286.8,934,289.4,934,292.6L934,292.6
				z M922,271.3H934v5.6h0.2c0.5-0.8,1.2-1.5,2.1-2.3c0.8-0.8,1.8-1.5,3-2.1c1.1-0.6,2.4-1.2,3.7-1.6c1.3-0.4,2.8-0.6,4.3-0.6
				c3.1,0,6,0.5,8.6,1.6c2.6,1.1,4.8,2.6,6.6,4.6c1.8,2,3.3,4.3,4.2,7c1,2.7,1.5,5.6,1.5,8.8c0,3-0.5,5.8-1.4,8.5
				c-0.9,2.7-2.2,5.1-3.8,7.2c-1.7,2.1-3.7,3.8-6.1,5c-2.4,1.3-5.1,1.9-8.1,1.9c-2.7,0-5.3-0.4-7.7-1.3c-2.4-0.8-4.3-2.3-5.8-4.3
				h-0.2v24.5H922V271.3z"/>
			<path id="Fill-6" fill="#FFFFFF" d="M1015.7,313.8h-12.6v-5.8h-0.2c-0.5,0.8-1.1,1.6-1.8,2.5c-0.7,0.8-1.6,1.5-2.7,2.2
				c-1.1,0.6-2.2,1.2-3.6,1.6c-1.3,0.4-2.8,0.6-4.4,0.6c-3.3,0-6-0.5-8.1-1.5c-2.1-1-3.7-2.4-4.8-4.2c-1.1-1.8-1.9-3.9-2.3-6.4
				s-0.6-5.1-0.6-8v-23.5h13.1v20.8c0,1.2,0,2.5,0.1,3.8c0.1,1.3,0.3,2.5,0.8,3.6c0.4,1.1,1.1,2,2,2.7c0.9,0.7,2.2,1.1,3.9,1.1
				c1.7,0,3.1-0.3,4.1-0.9c1-0.6,1.9-1.4,2.4-2.4c0.6-1,0.9-2.2,1.1-3.5c0.2-1.3,0.3-2.6,0.3-4v-21.2h13.1V313.8z"/>
			<path id="Fill-8" fill="#FFFFFF" d="M1025.5,271.3h12.6v5.8h0.2c0.4-0.8,1-1.6,1.7-2.5c0.8-0.8,1.7-1.5,2.7-2.2
				c1-0.6,2.2-1.2,3.6-1.6c1.3-0.4,2.8-0.6,4.4-0.6c3.3,0,6,0.5,8,1.5c2,1,3.6,2.4,4.8,4.2c1.1,1.8,1.9,3.9,2.3,6.4
				c0.4,2.4,0.6,5.1,0.6,8v23.5h-13.1V293c0-1.2,0-2.5-0.1-3.8c-0.1-1.3-0.4-2.5-0.8-3.6c-0.4-1.1-1.1-2-2-2.7
				c-0.9-0.7-2.2-1.1-3.9-1.1c-1.7,0-3.1,0.3-4.1,0.9c-1.1,0.6-1.9,1.4-2.4,2.4c-0.6,1-0.9,2.2-1.1,3.5c-0.2,1.3-0.3,2.6-0.3,4v21.2
				h-13.1V271.3z"/>
			<path id="Fill-10" fill="#FFFFFF" d="M1104.3,281.8h-11.5V296c0,1.2,0.1,2.2,0.2,3.2c0.1,1,0.4,1.8,0.8,2.5
				c0.4,0.7,1,1.2,1.9,1.6c0.8,0.4,2,0.6,3.4,0.6c0.7,0,1.6-0.1,2.8-0.2c1.1-0.1,2-0.5,2.6-1v10.9c-1.5,0.5-3,0.9-4.5,1.1
				c-1.6,0.2-3.1,0.3-4.6,0.3c-2.2,0-4.3-0.2-6.1-0.7c-1.9-0.5-3.5-1.2-4.9-2.2c-1.4-1-2.5-2.3-3.3-4c-0.8-1.6-1.2-3.6-1.2-6v-20.2
				h-8.4v-10.5h8.4v-12.6h13.1v12.6h11.5V281.8z"/>
			<path id="Fill-12" fill="#FFFFFF" d="M1138.1,287.8c0.1-2.2-0.7-4.1-2.2-5.7c-1.5-1.6-3.5-2.4-5.9-2.4c-1.5,0-2.7,0.2-3.9,0.7
				c-1.1,0.5-2.1,1.1-2.8,1.8c-0.8,0.7-1.4,1.6-1.8,2.5c-0.4,1-0.7,2-0.7,3H1138.1z M1149.2,306.5c-2.1,2.7-4.8,4.8-8,6.2
				c-3.2,1.5-6.5,2.2-10,2.2c-3.3,0-6.3-0.5-9.2-1.6c-2.9-1.1-5.4-2.6-7.5-4.5c-2.1-2-3.8-4.3-5-7c-1.2-2.7-1.8-5.8-1.8-9.2
				c0-3.4,0.6-6.4,1.8-9.2c1.2-2.7,2.9-5.1,5-7c2.1-2,4.6-3.5,7.5-4.5c2.9-1,6-1.6,9.2-1.6c3,0,5.8,0.5,8.3,1.6
				c2.5,1.1,4.6,2.6,6.3,4.5c1.7,2,3,4.3,4,7c0.9,2.7,1.4,5.8,1.4,9.2v4.1h-30.4c0.5,2.5,1.7,4.5,3.4,6c1.8,1.5,3.9,2.2,6.5,2.2
				c2.2,0,4-0.5,5.5-1.4c1.5-1,2.8-2.2,3.9-3.7L1149.2,306.5z"/>
			<path id="Fill-14" fill="#FFFFFF" d="M1157.7,271.3h13.1v6.8h0.2c1.4-2.6,3.1-4.6,5-5.9c1.9-1.3,4.3-2,7.3-2c0.8,0,1.5,0,2.3,0.1
				c0.8,0.1,1.5,0.2,2.1,0.3v12c-0.9-0.3-1.9-0.5-2.8-0.7c-0.9-0.1-1.9-0.2-2.8-0.2c-2.5,0-4.5,0.4-6,1.1c-1.5,0.7-2.6,1.7-3.4,2.9
				c-0.8,1.3-1.3,2.8-1.5,4.5c-0.2,1.7-0.3,3.7-0.3,5.8v17.8h-13.1V271.3z"/>
			<g id="Group-18" transform="translate(555.000000, 28.122000)">
				<path id="Fill-16" fill="#FFFFFF" d="M662.6,255.7c-1.9-2.4-4.5-3.6-7.6-3.6c-1.1,0-2.2,0.3-3.2,0.8c-1.1,0.5-1.6,1.4-1.6,2.7
					c0,1,0.5,1.8,1.6,2.3c1.1,0.5,2.4,0.9,4.1,1.3c1.7,0.4,3.4,0.8,5.3,1.2c1.9,0.4,3.7,1.1,5.3,2.1c1.7,0.9,3,2.2,4.1,3.8
					c1.1,1.6,1.6,3.7,1.6,6.4c0,2.7-0.6,5-1.8,6.8c-1.2,1.8-2.7,3.2-4.6,4.3c-1.9,1.1-4,1.8-6.3,2.3c-2.3,0.4-4.6,0.7-6.9,0.7
					c-3,0-6-0.4-9-1.3c-3-0.8-5.6-2.3-7.7-4.5l8-8.8c1.2,1.5,2.6,2.7,4.1,3.5c1.5,0.8,3.2,1.2,5.2,1.2c1.5,0,2.9-0.2,4.1-0.7
					c1.2-0.4,1.8-1.2,1.8-2.4c0-1.1-0.5-1.9-1.6-2.5c-1.1-0.6-2.5-1-4.1-1.4c-1.7-0.4-3.4-0.8-5.3-1.2c-1.9-0.4-3.7-1.1-5.3-2
					c-1.7-0.9-3-2.1-4.1-3.7c-1.1-1.6-1.6-3.7-1.6-6.4c0-2.5,0.5-4.7,1.5-6.5c1-1.8,2.4-3.3,4-4.5c1.7-1.2,3.6-2,5.7-2.6
					c2.2-0.6,4.3-0.8,6.6-0.8c2.8,0,5.6,0.4,8.5,1.2c2.9,0.8,5.3,2.3,7.3,4.4L662.6,255.7z"/>
			</g>
			<path id="Fill-19" fill="#FFFFFF" d="M874,296.4c-0.1,0-0.1,0-0.2,0l-0.5-0.1c-0.4,0-0.7-0.2-0.9-0.5c-0.2-0.3-0.3-0.6-0.2-1
				c0.2-1.5,0.4-3,0.4-4.6c0-0.5,0-1,0-1.6c0-0.5,0.3-1.1,0.8-1.3l0.5-0.2c0.4-0.2,0.8-0.1,1.2,0.1c0.4,0.2,0.6,0.6,0.6,1
				c0,0.7,0.1,1.4,0.1,2c0,1.7-0.1,3.4-0.4,5.1C875.2,295.9,874.7,296.4,874,296.4 M873.9,301.3c-0.7,2-1.5,3.8-2.6,5.6
				c-0.2,0.3-0.5,0.5-0.9,0.6c-0.1,0-0.2,0-0.3,0c-0.3,0-0.6-0.1-0.8-0.3l-0.9-0.7c-0.6-0.4-0.7-1.3-0.3-1.8c1-1.3,1.9-2.8,2.5-4.5
				c0.2-0.5,0.8-0.9,1.4-0.8l0.7,0.1c0.4,0,0.7,0.3,0.9,0.6C873.9,300.5,874,300.9,873.9,301.3 M867.6,311.8c-1.4,1.5-3,2.9-4.7,4
				c-0.2,0.1-0.5,0.2-0.7,0.2c-0.1,0-0.3,0-0.4-0.1c-0.4-0.1-0.7-0.4-0.8-0.7l-1.1-2.6c-0.3-0.7,0-1.4,0.7-1.7
				c1.3-0.6,2.6-1.4,3.8-2.2c0.5-0.3,1.1-0.3,1.6,0l1.6,1.2c0.3,0.2,0.5,0.6,0.5,0.9C868,311.1,867.9,311.5,867.6,311.8
				 M868.7,275.3c-0.3-0.5-0.2-1,0.1-1.4l0.3-0.4c0.3-0.3,0.7-0.5,1.1-0.5c0.4,0,0.8,0.3,1.1,0.6c1.5,2.6,2.7,5.4,3.5,8.4
				c0.2,0.6-0.2,1.3-0.8,1.5l-0.4,0.2c-0.2,0.1-0.3,0.1-0.5,0.1c-0.2,0-0.4,0-0.6-0.1c-0.3-0.2-0.6-0.5-0.7-0.9
				C871.1,280.1,870,277.6,868.7,275.3 M841.5,312.5l-1.1,2.6c-0.2,0.4-0.5,0.6-0.8,0.7c-0.1,0-0.3,0.1-0.4,0.1
				c-0.3,0-0.5-0.1-0.7-0.2c-1.7-1.1-3.3-2.5-4.7-4c-0.3-0.3-0.4-0.6-0.3-1c0-0.4,0.2-0.7,0.5-0.9l1.6-1.2c0.5-0.3,1.1-0.4,1.6,0
				c1.2,0.9,2.4,1.6,3.8,2.2C841.5,311.1,841.8,311.9,841.5,312.5 M832.9,306.5l-0.9,0.7c-0.2,0.2-0.5,0.3-0.8,0.3
				c-0.1,0-0.2,0-0.3,0c-0.4-0.1-0.7-0.3-0.9-0.6c-1-1.7-1.9-3.6-2.6-5.6c-0.1-0.4-0.1-0.8,0.1-1.1c0.2-0.3,0.6-0.6,0.9-0.6l0.7-0.1
				c0.6-0.1,1.1,0.3,1.4,0.8c0.7,1.6,1.5,3.1,2.5,4.5C833.6,305.3,833.5,306.1,832.9,306.5 M826,295.3c-0.3-1.7-0.4-3.4-0.4-5.1
				c0-0.6,0-1.2,0.1-2c0-0.4,0.3-0.8,0.6-1c0.4-0.2,0.8-0.3,1.2-0.1l0.5,0.2c0.5,0.2,0.8,0.7,0.8,1.3c0,0.6,0,1.1,0,1.6
				c0,1.6,0.1,3.1,0.4,4.6c0.1,0.4,0,0.7-0.2,1c-0.2,0.3-0.5,0.5-0.9,0.5l-0.5,0.1c-0.1,0-0.1,0-0.2,0
				C826.7,296.4,826.1,295.9,826,295.3 M826.7,282c0.7-3,1.9-5.8,3.5-8.4c0.2-0.4,0.6-0.6,1.1-0.6c0.4,0,0.9,0.2,1.1,0.5l0.3,0.4
				c0.3,0.4,0.3,1,0.1,1.4c-1.3,2.3-2.3,4.8-3,7.5c-0.1,0.4-0.3,0.7-0.7,0.9c-0.2,0.1-0.4,0.1-0.6,0.1c-0.2,0-0.3,0-0.5-0.1
				l-0.5-0.2C826.8,283.3,826.5,282.6,826.7,282 M873.2,269.2c-0.9-1.6-2.6-2.7-4.5-2.7c-2.8,0-5.1,2.3-5.1,5.1c0,1.1,0.4,2.1,1,3
				c2.8,4,4.5,9.2,4.5,14.8c0,12.5-8.2,19.1-18.3,19.1s-18.3-6.6-18.3-19.1c0-5.6,1.7-10.7,4.4-14.6c0.7-0.9,1.1-2,1.1-3.1
				c0-2.8-2.3-5.1-5.1-5.1c-1.9,0-3.5,1-4.4,2.5c-3.9,5.6-6.2,12.7-6.2,20.4c0,18.1,12.8,32.9,28.6,32.9s28.6-14.7,28.6-32.9
				C879.3,281.9,877,274.8,873.2,269.2"/>
		</g>
	</g>
</g>
<g id="Logo">
	<g>
		<g>
			<g>
				<g id="layer1" transform="translate(-907.05252,-27.732639)" inkscape:groupmode="layer" inkscape:label="Layer 1">
					<g id="g2993" transform="matrix(1.25,0,0,-1.25,-825,1207.3622)" inkscape:label="InvestorPresentation">
						<g id="g3011" transform="matrix(0.46657405,0,0,0.46657405,739.35079,476.88283)">
							<g id="g3013">
								<g id="g3019">
									<g id="g3021">
										<g id="g3027" transform="translate(1665.8521,938.4882)">
											<path id="path3029" inkscape:connector-curvature="0" fill="#FFFFFF" d="M1432.6-690.6c-0.5,0-0.7,0.6-0.1,1.2
												c1.8,1.3,2.5,1.7,2.6,1.8C1436.3-687.6,1434-690.6,1432.6-690.6z M1492.7-684c-0.1,0.1-0.2,0.2-0.3,0.2c0,0,0,0-0.1,0.1
												c-0.9,0.6-1.9,0.3-1.9,0.3s0.2-0.3-0.7-1.1c-0.1,0-0.1-0.1-0.1-0.1c0,0-0.1,0-0.1-0.1c-3.4-2.8-7.9-5-12.6-5.9
												c1.5,0.9,5.1,4.3,2.6,6.2c-1.5,1.1-4.1,0.6-6.5-0.6c0.3,0.5,1,1.4,0.7,2.6c-0.3,1.2-2.5,1.5-3.8,1.1
												c0-1.2-0.2-1.9-0.4-2.1c-5.5-4.8-12.7-7.4-13.3-6.8c-0.5,0.5,1.1,2.4,1.7,3.1c0.4,0.6,0.5,1.4,0.1,2
												c-0.5,0.9-1.4,1-3.1,0.6c-2.4-0.4-4,0.4-5.4,2.6c-0.7,1.1-2.4,0.8-3.2,0.3c0.2-0.7,0.2-1.4,0-2.1
												c-1.4-3.4-5.8-3.4-7.5-2.2c-0.2,0.7-0.9,2-2.1,2.2c-3.9,0.6-5.2-1.8-5.8-2.5c-1.4-1.6-10.6-5.6-12.8-3.9
												c-1.6,1.3-0.3,6,2.8,10.7c4.5,7.1,6.6,7,7.3,6.3c0.4-0.4,0.9-1.4,0-3.2c-0.1-0.1-0.1-0.2-0.2-0.4
												c-1.6-2.6-2.2-2.4-2.2-2.4c-0.5-1.5,0.1-2.4,0.6-2.8c0.5-0.5,1.3-0.3,1.5-0.3c0.8,0.3,1.2,0.9,1.7,1.6
												c2.2,3.4,3.5,8.8,0,10.7c-2.6,1.4-6.9-0.5-11.6-8.2c-4.2-6.9-5.4-12.2-2.4-14.8c3.7-3.1,11.5,1,14.1,2.2
												c-0.1-0.5,0.1-3.1,2.7-3c3.3,0.2,5.3,3,6.2,4.5c1.3-0.7,6.9-1.8,10.3,3.3c0.4-0.3,2.4-1.8,5.2-1.8
												c-1-1.8-2.2-3.9-0.4-5.4c2.6-2,11.5,2.9,14,4.4c-1.5-2.7-4-8.7-6.6-14.1c-1.1-2.2-2.5-5.2-1-6c1.2-0.6,3,0,3.3,1.6
												c0.4,2.1,2.4,7.9,3.8,11c2.7,6,5.1,9.1,9.2,9.1c-0.3-0.5-0.3-0.9-1.7-2.2c-1.5-1.5-3.2-1.4-3.1-3c0-0.9,1-1.2,1.3-1.3
												c2.1-0.6,8.1,1.2,10.4,2c2.7,1,6.4,2.8,9.1,4.5C1493.6-686.1,1493.7-684.9,1492.7-684z M1400.1-678
												c-2.3-0.2-5-0.9-6.1-3.2c-0.8-1.9-0.2-3.9,1.6-6.1c1.1-1.4,2.2-2.6,2.5-2.9c-0.8-0.2-2.6-0.1-4.4,0.2c0,0,0,0,0,0
												c-0.4,0.1-0.8,0.2-1.2,0.3c-1,0.3-1.3,0.7-1.3,0.7l-0.1-0.1c0,0,0,0,0,0l0.1,0.1c-0.7-0.1-1.3-0.6-1.7-1.1
												c-0.4-0.5-0.8-1.5-0.5-2c0.3-0.4,0.9-0.6,2-0.7c1.8-0.1,6.5-0.7,8.2-0.9c1.3-0.2,2.3,0.8,2.5,1.5c0.4,0.9,0,1.8-0.5,2.3
												c-2.2,2.6-5.4,5.4-4.2,7.8c0.5,1.1,3,0.9,3.9,0.6c1.8-0.5,2.7,0.1,3.1,1.3C1404.3-679.5,1403.8-677.7,1400.1-678z
												 M1353.9-681c0.3-0.3-0.4-1-1-1.4c-1.6-1.1-3.3-1.7-4.5-2.1C1349.7-681.9,1353.4-680.3,1353.9-681z M1392-686.7
												c0.9,0.5,1.3,1.5,0.5,2.4c-0.7,0.9-2.1,0.8-2.8,0.4c-0.5-0.3-1.1-0.9-3-1c-1.7-0.1-2.4,0.6-3.5,0.6
												c-1.2,0-1.7-0.9-3.2-2.7c-0.8-1-2.5-3.1-3.3-3.1c-0.7,0-0.9,1.9-0.9,4.4c0,1.1-0.5,2.1-1.8,2c-1.1-0.1-1.3-1.5-1.8-2.1
												c-1.7-2-3-3.9-3.7-3.9c-0.8,0-1.2,1.9-1.2,3.3c0,0,0.3,2.3-1.8,2.6c-0.9,0.2-1.8-0.3-1.8-0.3c0.1-0.2,0.1-0.3,0.1-0.5
												c-0.3-0.9-2-2.3-2-2.3h0c-1.9-1.4-5.7-3.8-9.1-4c-4-0.2-4.7,1.9-4.8,2.8c3.4,1.3,5.7,2.7,7.2,3.9
												c1.6,1.2,2.6,2.6,2.5,3.9c-0.1,1.8-1.8,2.4-3,2.4c-2.8,0-7.4-1.2-9.6-7.3c-0.5-0.2-1.6-0.2-2.2,0
												c-0.8,0.2-0.8,0.6-0.8,0.6c-0.8-0.2-1.1-0.6-1.3-1.2c-0.4-1,0.1-1.9,1-2.4c0.6-0.3,1.6-0.6,3-0.4c0.2-1.8,1.4-5.2,8-5
												c5.2,0.2,11.3,4.5,11.8,4.8c0.2-1.1,1-4.9,3.2-4.9c2.7,0,5.4,4,5.4,4s0.7-4,3.4-4c2.2,0,5,3.5,5.7,4.3
												c0.6,0.7,1.7,2,2.3,2c0.6,0.1,1.8-0.7,5.2,0C1389.7-687.5,1391.2-687.1,1392-686.7z M1349.6-667.5c0.2,0.6,0,1.4-0.4,1.7
												c-1.3,1-2.5,0.4-3.4-0.5c-1-1.1-2.4-3.6-3-4.5c-5.2-8.4-9.2-17.5-9.2-17.5s-1.4,4.2-1.6,7.5c-0.2,3.1-0.3,6.2-0.5,7.6
												c0,0.6-0.3,1.5-1.3,1.8c-0.8,0.3-2,0.4-2.8,0.1c-0.1-1-0.1-1.5-0.5-2.7c-0.4-1.2-3.1-6.4-3.6-7.2
												c-2.3-4.2-5.4-9.4-5.6-9.7c-0.6-1.2-1.5-2.8,0-3.3c1.5-0.6,2.8-0.3,3.5,0.7c0.1,0.2,0.3,0.5,0.3,0.5s-0.4,0.4,0.5,2.5
												c0.3,0.6,0.6,1.2,1,2c0.1,0.1,0.1,0.3,0.2,0.4c0.1,0.2,0.2,0.4,0.3,0.5c1.5,3,3.6,7,5.4,10.4c0-2,0.2-4.5,0.4-6.3
												c0.4-3.5,1.3-5,1.6-7.8c-0.1-1.9,0.1-2.2,1.5-2.6c1.3-0.4,2,0,2.5,1.2c1.9,4.7,7.2,15.5,11.8,21.3
												C1347.3-670.6,1349.1-668.9,1349.6-667.5"/>
										</g>
									</g>
								</g>
							</g>
						</g>
					</g>
				</g>
			</g>
		</g>
		<g>
			<path fill="#FFFFFF" d="M1040.8,440.8l5.3-13.4h1.4l5.3,13.4h-1.3l-1.4-3.6h-6.7l-1.4,3.6H1040.8z M1049.7,436.1l-2.9-7.6l-3,7.6
				H1049.7z"/>
			<path fill="#FFFFFF" d="M1060.3,431.5h1.1v7.2c0,0.4,0,0.7,0,1.1c0,0.4,0,0.7,0.1,1h-1.2l-0.1-1.4l0,0c-0.3,0.6-0.7,1-1.2,1.3
				c-0.5,0.3-1.1,0.4-1.7,0.4c-0.5,0-0.9-0.1-1.3-0.2c-0.4-0.1-0.7-0.3-0.9-0.5c-0.2-0.2-0.4-0.5-0.6-0.7c-0.1-0.3-0.3-0.6-0.3-0.8
				c-0.1-0.3-0.1-0.5-0.1-0.8c0-0.3,0-0.5,0-0.7v-5.8h1.1v6c0,0.8,0.2,1.4,0.6,1.9c0.4,0.4,1,0.7,1.8,0.7c0.5,0,0.9-0.1,1.2-0.3
				c0.3-0.2,0.6-0.4,0.8-0.7c0.2-0.3,0.4-0.6,0.5-1c0.1-0.4,0.2-0.8,0.2-1.2V431.5z"/>
			<path fill="#FFFFFF" d="M1064.1,433.8c0-0.5,0.1-0.9,0.3-1.2c0.2-0.3,0.5-0.6,0.8-0.8c0.3-0.2,0.7-0.4,1.1-0.4
				c0.4-0.1,0.8-0.1,1.2-0.1c0.4,0,0.9,0,1.3,0.1c0.4,0.1,0.7,0.2,1,0.4c0.3,0.2,0.6,0.5,0.8,0.8c0.2,0.3,0.3,0.7,0.3,1.2h-1.2
				c0-0.3-0.1-0.5-0.2-0.7c-0.1-0.2-0.3-0.4-0.5-0.5c-0.2-0.1-0.4-0.2-0.7-0.3c-0.3-0.1-0.5-0.1-0.8-0.1c-0.3,0-0.5,0-0.8,0.1
				c-0.3,0.1-0.5,0.1-0.7,0.3c-0.2,0.1-0.3,0.3-0.5,0.5c-0.1,0.2-0.2,0.4-0.2,0.7c0,0.3,0.1,0.6,0.3,0.8c0.2,0.2,0.5,0.3,0.9,0.5
				c0.4,0.1,0.8,0.2,1.4,0.4c0.5,0.1,1.1,0.3,1.7,0.5c0.5,0.2,0.9,0.5,1.2,0.8c0.3,0.4,0.4,0.8,0.4,1.3c0,0.5-0.1,1-0.3,1.4
				c-0.2,0.4-0.5,0.7-0.9,1c-0.4,0.3-0.8,0.4-1.3,0.6c-0.5,0.1-1,0.2-1.4,0.2c-0.4,0-0.8,0-1.2-0.1c-0.4-0.1-0.8-0.3-1.1-0.5
				c-0.3-0.2-0.6-0.5-0.8-0.9c-0.2-0.4-0.3-0.8-0.3-1.3h1.2c0,0.3,0.1,0.6,0.3,0.9c0.2,0.2,0.3,0.4,0.6,0.6c0.2,0.1,0.5,0.2,0.8,0.3
				c0.3,0.1,0.6,0.1,0.9,0.1c0.3,0,0.6,0,0.9-0.1c0.3-0.1,0.6-0.2,0.8-0.3c0.2-0.1,0.4-0.3,0.6-0.6c0.1-0.2,0.2-0.5,0.2-0.8
				c0-0.3-0.1-0.6-0.3-0.8c-0.2-0.2-0.4-0.4-0.7-0.5c-0.3-0.1-0.6-0.2-0.9-0.3c-0.4-0.1-0.7-0.2-1.1-0.3c-0.4-0.1-0.7-0.2-1.1-0.3
				c-0.4-0.1-0.7-0.3-0.9-0.4c-0.3-0.2-0.5-0.4-0.7-0.7C1064.2,434.6,1064.1,434.3,1064.1,433.8z"/>
			<path fill="#FFFFFF" d="M1074.5,432.5h-1.9v-1h1.9v-2l1.1-0.5v2.5h2.1v1h-2.1v6.2c0,0.9,0.4,1.3,1.3,1.3c0.2,0,0.3,0,0.5,0
				c0.2,0,0.3,0,0.5-0.1v1c-0.2,0-0.4,0.1-0.6,0.1c-0.2,0-0.4,0-0.6,0c-0.6,0-1-0.1-1.3-0.3c-0.3-0.2-0.5-0.4-0.7-0.7
				c-0.1-0.3-0.2-0.6-0.2-0.9c0-0.3,0-0.6,0-1V432.5z"/>
			<path fill="#FFFFFF" d="M1081,440.8h-1.1v-7.2c0-0.4,0-0.7,0-1.1c0-0.4,0-0.7-0.1-1h1.2l0.1,1.4h0c0.2-0.5,0.4-0.9,0.8-1.2
				c0.4-0.3,0.8-0.5,1.3-0.5c0.2,0,0.4,0,0.6,0c0.2,0,0.4,0,0.6,0v1.1c-0.1,0-0.2,0-0.3,0c-0.1,0-0.2,0-0.3,0
				c-0.8,0-1.5,0.3-1.9,0.8c-0.4,0.5-0.7,1.3-0.7,2.2V440.8z"/>
			<path fill="#FFFFFF" d="M1091.3,434.3c-0.1-0.8-0.3-1.3-0.7-1.6c-0.4-0.3-0.9-0.4-1.6-0.4c-0.3,0-0.6,0-0.8,0.1
				c-0.3,0-0.5,0.1-0.7,0.3c-0.2,0.1-0.4,0.3-0.5,0.5c-0.1,0.2-0.2,0.5-0.3,0.8h-1.2c0.1-0.5,0.2-0.9,0.4-1.2
				c0.2-0.3,0.5-0.6,0.8-0.8c0.3-0.2,0.7-0.4,1-0.5c0.4-0.1,0.8-0.1,1.3-0.1c1,0,1.8,0.2,2.4,0.7c0.6,0.5,0.9,1.3,0.9,2.3v4.4
				c0,0.4,0,0.7,0,1.1c0,0.4,0,0.7,0.1,1h-1.2l0-1.4h0l-0.1,0.1c-0.1,0.2-0.2,0.4-0.4,0.6c-0.2,0.2-0.4,0.3-0.7,0.5
				c-0.3,0.1-0.5,0.3-0.9,0.3c-0.3,0.1-0.6,0.1-0.9,0.1c-0.4,0-0.8-0.1-1.2-0.2c-0.4-0.1-0.7-0.3-1-0.6c-0.3-0.2-0.5-0.5-0.7-0.9
				c-0.2-0.4-0.2-0.8-0.2-1.2c0-0.6,0.2-1.2,0.5-1.6c0.3-0.5,0.8-0.8,1.4-1c0.3-0.1,0.6-0.2,1-0.3c0.4-0.1,0.7-0.1,1.1-0.1
				c0.4,0,0.7,0,1.1,0c0.4,0,0.7,0,1,0V434.3z M1086.4,438.2c0,0.6,0.2,1.1,0.6,1.4c0.4,0.3,0.9,0.5,1.5,0.5c0.6,0,1.1-0.1,1.5-0.3
				c0.4-0.2,0.7-0.5,0.9-0.9c0.2-0.4,0.3-0.8,0.4-1.3c0.1-0.5,0.1-1,0-1.4c-0.4,0-0.9,0-1.4,0c-0.6,0-1.1,0.1-1.6,0.2
				c-0.5,0.1-1,0.3-1.3,0.6C1086.6,437.2,1086.4,437.7,1086.4,438.2z"/>
			<path fill="#FFFFFF" d="M1096.5,440.8h-1.1v-13.4h1.1V440.8z"/>
			<path fill="#FFFFFF" d="M1100.7,428.8h-1.3v-1.4h1.3V428.8z M1100.6,431.5v9.3h-1.1v-9.3H1100.6z"/>
			<path fill="#FFFFFF" d="M1108.9,434.3c-0.1-0.8-0.3-1.3-0.7-1.6c-0.4-0.3-0.9-0.4-1.6-0.4c-0.3,0-0.6,0-0.8,0.1
				c-0.3,0-0.5,0.1-0.7,0.3c-0.2,0.1-0.4,0.3-0.5,0.5c-0.1,0.2-0.2,0.5-0.3,0.8h-1.2c0.1-0.5,0.2-0.9,0.4-1.2
				c0.2-0.3,0.5-0.6,0.8-0.8c0.3-0.2,0.7-0.4,1-0.5c0.4-0.1,0.8-0.1,1.3-0.1c1,0,1.8,0.2,2.4,0.7c0.6,0.5,0.9,1.3,0.9,2.3v4.4
				c0,0.4,0,0.7,0,1.1c0,0.4,0,0.7,0.1,1h-1.2l0-1.4h0l-0.1,0.1c-0.1,0.2-0.2,0.4-0.4,0.6c-0.2,0.2-0.4,0.3-0.7,0.5
				c-0.3,0.1-0.5,0.3-0.9,0.3c-0.3,0.1-0.6,0.1-0.9,0.1c-0.4,0-0.8-0.1-1.2-0.2c-0.4-0.1-0.7-0.3-1-0.6c-0.3-0.2-0.5-0.5-0.7-0.9
				c-0.2-0.4-0.2-0.8-0.2-1.2c0-0.6,0.2-1.2,0.5-1.6c0.3-0.5,0.8-0.8,1.4-1c0.3-0.1,0.6-0.2,1-0.3c0.4-0.1,0.7-0.1,1.1-0.1
				c0.4,0,0.7,0,1.1,0c0.4,0,0.7,0,1,0V434.3z M1104,438.2c0,0.6,0.2,1.1,0.6,1.4c0.4,0.3,0.9,0.5,1.5,0.5c0.6,0,1.1-0.1,1.5-0.3
				c0.4-0.2,0.7-0.5,0.9-0.9c0.2-0.4,0.3-0.8,0.4-1.3c0.1-0.5,0.1-1,0-1.4c-0.4,0-0.9,0-1.4,0c-0.6,0-1.1,0.1-1.6,0.2
				c-0.5,0.1-1,0.3-1.3,0.6C1104.2,437.2,1104,437.7,1104,438.2z"/>
		</g>
	</g>
</g>
<g id="horse4">
</g>
<g id="horse3">
</g>
<g id="horse2">
</g>
<g id="horse1">
</g>
<g id="Finish_line">
	<g>
		<linearGradient id="SVGID_52_" gradientUnits="userSpaceOnUse" x1="1882.9999" y1="782.5543" x2="1922.6323" y2="782.5543">
			<stop  offset="0" style="stop-color:#FFFFFF;stop-opacity:0"/>
			<stop  offset="8.962709e-02" style="stop-color:#FFFFFF;stop-opacity:8.962709e-02"/>
			<stop  offset="1" style="stop-color:#FFFFFF"/>
		</linearGradient>
		<path fill="url(#SVGID_52_)" d="M1883,927.7V950h19.8v-22.3H1883z M1883,972.4v22.3h19.8v-22.3H1883z M1922.6,503.4h-19.8v22.3
			h19.8V503.4z M1922.6,548.1h-19.8v22.3h19.8V548.1z M1883,1017v22.3h19.8V1017H1883z M1883,659.7v22.3h19.8v-22.3H1883z
			 M1883,615.1v22.3h19.8v-22.3H1883z M1883,704.4v22.3h19.8v-22.3H1883z M1883,749.1v22.3h19.8v-22.3H1883z M1883,838.4v22.3h19.8
			v-22.3H1883z M1883,793.7V816h19.8v-22.3H1883z M1883,883v22.3h19.8V883H1883z M1883,525.8v22.3h19.8v-22.3H1883z M1883,481.1
			v22.3h19.8v-22.3H1883z M1883,570.4v22.3h19.8v-22.3H1883z M1922.6,950h-19.8v22.3h19.8V950z M1922.6,905.4h-19.8v22.3h19.8V905.4
			z M1922.6,860.7h-19.8V883h19.8V860.7z M1922.6,994.7h-19.8v22.3h19.8V994.7z M1883,1061.7v22.3h19.8v-22.3H1883z M1922.6,1039.3
			h-19.8v22.3h19.8V1039.3z M1922.6,816h-19.8v22.3h19.8V816z M1922.6,592.8h-19.8v22.3h19.8V592.8z M1922.6,682.1h-19.8v22.3h19.8
			V682.1z M1922.6,637.4h-19.8v22.3h19.8V637.4z M1922.6,771.4h-19.8v22.3h19.8V771.4z M1922.6,726.7h-19.8v22.3h19.8V726.7z"/>
		<linearGradient id="SVGID_53_" gradientUnits="userSpaceOnUse" x1="1882.9999" y1="782.5551" x2="1922.6323" y2="782.5551">
			<stop  offset="0" style="stop-color:#000000"/>
			<stop  offset="0.9104" style="stop-color:#000000;stop-opacity:8.962709e-02"/>
			<stop  offset="1" style="stop-color:#000000;stop-opacity:0"/>
		</linearGradient>
		<path fill="url(#SVGID_53_)" d="M1883,950v22.3h19.8V950H1883z M1883,994.7v22.3h19.8v-22.3H1883z M1922.6,525.8h-19.8v22.3h19.8
			V525.8z M1922.6,570.4h-19.8v22.3h19.8V570.4z M1883,1039.3v22.3h19.8v-22.3H1883z M1883,682.1v22.3h19.8v-22.3H1883z M1883,637.4
			v22.3h19.8v-22.3H1883z M1883,726.7v22.3h19.8v-22.3H1883z M1922.6,481.1h-19.8v22.3h19.8V481.1z M1883,771.4v22.3h19.8v-22.3
			H1883z M1883,860.7V883h19.8v-22.3H1883z M1883,816v22.3h19.8V816H1883z M1883,905.4v22.3h19.8v-22.3H1883z M1883,548.1v22.3h19.8
			v-22.3H1883z M1883,503.4v22.3h19.8v-22.3H1883z M1883,592.8v22.3h19.8v-22.3H1883z M1922.6,972.4h-19.8v22.3h19.8V972.4z
			 M1922.6,927.7h-19.8V950h19.8V927.7z M1922.6,883h-19.8v22.3h19.8V883z M1922.6,1017h-19.8v22.3h19.8V1017z M1922.6,1061.7h-19.8
			v22.3h19.8V1061.7z M1922.6,838.4h-19.8v22.3h19.8V838.4z M1922.6,615.1h-19.8v22.3h19.8V615.1z M1922.6,704.4h-19.8v22.3h19.8
			V704.4z M1922.6,659.7h-19.8v22.3h19.8V659.7z M1922.6,793.7h-19.8V816h19.8V793.7z M1922.6,749.1h-19.8v22.3h19.8V749.1z"/>
	</g>
</g>
</svg>
