<?xml version="1.0" encoding="utf-8"?>
<!-- Generator: Adobe Illustrator 18.1.1, SVG Export Plug-In . SVG Version: 6.00 Build 0)  -->
<svg version="1.1" id="Layer_87" xmlns="http://www.w3.org/2000/svg" xmlns:xlink="http://www.w3.org/1999/xlink" x="0px" y="0px"
	 viewBox="0 0 456.8 493.9" enable-background="new 0 0 456.8 493.9" xml:space="preserve">
<g>
	<g>
		<g>
			<path fill="#FEE989" d="M349.2,43C349.1,43,349.1,43,349.2,43l2.1,11.2c-2.5,1-0.8,0.3-5.1,2c3.7,0.1,2.1,0.1,5.5,0.2l2.1,11.1
				c4-3.5,8.3-6.7,12.8-9.7c15.3,2.4,29.3,7.9,42.1,14.4c-9.4-7.7-17.6-15.1-31.3-20.8c0.4-0.2,9.5-4.9,9.9-4.8
				c-5.2,0.5-12.5,0.7-17.6,1.8C361.1,45.5,357.2,44.6,349.2,43z"/>
			<path fill="#BE6900" d="M376.7,61.5l-0.8,8.4c-2.6,0.4-1.6,0.2-5,0.8c2.3,0.9,1.3,0.5,4.7,1.8l-0.8,8.3c4.1-2,7-3,10.5-4.1
				c18,8.4,38.9,24,51.2,37.3c-10.4-14.4-21.6-27.8-39.3-40.1c2-0.3,7.3-1.5,11.4-1.7c-5.8-1.2-13.3-3.1-18.7-3.1
				C389.4,68.7,377.4,61.5,376.7,61.5z"/>
			<path fill="#FEE989" d="M429.9,198c12.2,12.9,21.8,28.6,26.4,46.4c-1.6-19.5-5.6-33.2-16.6-50.5c-2-2.9-9.2-20.4-27.1-34.4
				c9.6,0.7,17.4,2.1,25.3,5c-9.5-3.7-19-5.9-28.5-6.4C419.3,169.9,425.6,180.7,429.9,198z"/>
			<path fill="#BE6900" d="M441.8,166.1c-2.7-13.2-5.2-23.9-12.4-35.9c-6.2-10-12.8-18.7-23.5-26.7c5.2,0.9,10.5,1.9,15.5,3.4
				c-6.9-2.5-14.2-4.4-20.2-5.3C423.3,117.2,436.7,139.7,441.8,166.1z"/>
			<path fill="#FEE989" d="M136.4,48c2,3,3.4,5.3,3.4,5.3l2.4-4.7c2.5,0.3,1.4,0.1,4.4,0.5c-3-3.1-1.7-1.7-3.1-3.1l2.4-4.8
				c-2.6-0.1-5.1-0.2-7.7-0.2c-4.5-4.1-11-9-15.9-12.7c1.9,2.3,4.3,6.2,9.2,12.8c-15.8,0.4-34.3,3-49.8,8.7
				C99.8,47.1,122.3,51.4,136.4,48z"/>
			<path fill="#FEE989" d="M187.7,59l5.9-4.6c3,2.1,2.2,1.5,4.1,2.8c-1.8-4.6-0.9-2.2-1.8-4.6l5.9-4.7c-2.1-1.1-11.4-26.6-34.6-35.9
				c4.9,5.1,6.4,6.2,12.5,23.3c-31.6-11.9-46.2-6.4-54.3-6.7c21.8,2.8,42.8,10.6,60.1,20.7C186.9,55,187.7,59,187.7,59z"/>
			<path fill="#FEE989" d="M310.3,30.7l4.2,7.7c-2.2,2.3-7.5,1.7-10.1,4.5c2.9-0.5,9.5-0.8,11.9-1.2l4.2,7.6
				c1.1-2.8,4.3,0.2,5.6-2.7c21.3-2.2,44.4-9.3,61.3-0.1C370.3,34,360.5,32.5,329.1,31c0.1-0.2,4.9-9.6,5.2-9.7
				c-3.4,2.8-10.4,4.3-13.6,7.3C320.2,28.6,310.7,30.5,310.3,30.7z"/>
			<path fill="#FEE989" d="M285.1,0c-18.5,2.8-45.4,9.3-61.5,22.1C201.3,15,188.4,16,167.1,12c22.8,8.1,40.2,21.5,61.9,34.7
				C245.2,26.9,263.5,4.1,285.1,0z"/>
			<path fill="#FEE989" d="M262.6,22.6c-0.8,0.3-5,10.1-5.6,10.7l3.5,9.6c-0.9,3.8,0.9,12.8,0.5,14.6c6-4,9.1-12.3,11.6-13.9l10,6.6
				c-0.4-3.9,3.5-5.5,3.3-9.5c14.2-7.7,29.7-16.9,48.3-19.5C313.8,19.8,302,20,281.4,25c0.2-9-1.1-17.4,3.8-25
				C275.7,7.1,265.6,12.5,262.6,22.6z"/>
			<path fill="#BE6900" d="M7.8,255.8c0.2-0.4,0.3-1,0.4-1.7C8,254.7,7.9,255.2,7.8,255.8z"/>
			<path fill="#BE6900" d="M68.4,401c-0.1-0.5-0.3-1.1-0.6-1.7C68,399.8,68.2,400.4,68.4,401z"/>
			<path fill="#BE6900" d="M50.9,113.4c-15.9,3.1-21.4,7-28.5,12C30.9,120.1,40.9,116.2,50.9,113.4z"/>
			<path fill="#BE6900" d="M157.5,473.1c-0.1-0.1-0.3-0.3-0.4-0.4C157.2,472.8,157.4,473,157.5,473.1z"/>
			<path fill="#BE6900" d="M47.8,81.8c0.1,0,0.2-0.1,0.3-0.2C48,81.7,47.9,81.8,47.8,81.8z"/>
			<path fill="#BE6900" d="M122.4,28.3c0.8,0.2,1.8,0.3,3,0.4C124.4,28.5,123.4,28.4,122.4,28.3z"/>
			<path fill="#BE6900" d="M71.6,54.2c3.2-1.6,6.5-3.1,10.1-4.4C78.1,50.9,74.7,52.3,71.6,54.2z"/>
			<path fill="#BE6900" d="M436.6,114c-4.5-3.3-9.7-5.5-15.2-7.1C426.9,108.9,432.2,111.4,436.6,114z"/>
			<path fill="#BE6900" d="M441.8,166.1c-1.3-0.6-2.6-1.1-4-1.6C439.1,165,440.4,165.5,441.8,166.1z"/>
			<path fill="#BE6900" d="M357,381.7l-7.9-5.8c0,1.2-5,10.4-5,10.4c1.7,1.9-5.8,59.2-29.8,80.4c12.8-9.9,18.4-15,28.2-31
				c7.5-14,9.8-21.3,12.7-34.7c6.3,11.2,8.5,16.6,9.4,28c3.3-14.5,6.4-27.7,0-39.2C365.1,385.1,356.8,388.6,357,381.7z"/>
			<path fill="#BE6900" d="M325.1,427.3c0,0-8.4-5.2-8.5-5.9c-1.1,2.2-9.7,3.7-9.7,3.7c1.5,3.6-28.1,48.7-49.2,59.9
				c21.3-8.7,39-19.5,55.1-39.8c1.3,7.8,2.4,13.8,1.6,21.5C316.7,457.9,324.4,428.5,325.1,427.3z"/>
			<path fill="#BE6900" d="M265.1,469.3c0.3-0.3-4.1-3.3-3.8-3.7c0,0-13.6-22.5-14.3-6.2c-8.2,10.9-12.7,28-22.4,35.8
				c10.5-6.3,19.6-12.4,29.3-21.9c1.3,3.4,3.6,8.4,3.8,11.7C258.1,480.1,265.8,474.1,265.1,469.3z"/>
			<path fill="#BE6900" d="M392.2,354l-7.8,3.4c-2.6-3.3-3.5-4.2-10.2-12c0.2,2.6,1,13.6,1.1,16l-7.4,3.2c2.6,1.4,4,45.6-3.3,64.5
				c9.8-15.2,17.7-28.3,23.4-51.7c9.7,7.2,11.4,8.8,12.8,14C404,382.9,393.2,356.6,392.2,354z"/>
			<path fill="#BE6900" d="M209,458.4c0,0-7.1-0.7-8.2-3.3c-0.6,5-14.6,5.3-14.6,5.3c2.3,3.7,16.9,26.6,19.4,32.2
				c-1-4.7-1.1-8.4-0.5-16.7c8.6,10.1,17.5,17.1,19.5,19.3C217.3,485.6,208.7,459.6,209,458.4z"/>
			<path fill="#BE6900" d="M456.3,244.4c-5.8-4.4-12.9-9.3-19.5-12.3c-2.7-6.6-4.8-10.5-7.7-15.6l-6.5,10.1c-2.9-0.9-4-1.2-6.2-1.9
				c1.8,2.2,0.9,1.1,4.1,5.1l-6.4,10c7.5-0.5,11.9-0.2,13.3-0.2c8.4,13.1,15.7,33.3,17.6,48.9c1.3-17.4,1-29.5-4.9-47.6
				C446.7,242,450.1,242.2,456.3,244.4z"/>
			<path fill="#BE6900" d="M422.1,251.2l-8.3,8.3c-2.9-1.7-2.7-1.6-5.4-3.1c1.5,2.8,0.7,1.3,2.9,5.5l-8.2,8.2
				c6.7,1.5,26.9,47.7,26.7,68.9c1.8-11.2,6-31.8,0-60.4c9.4,4.3,11.8,5.9,15.1,9.9C440.9,281.3,424,256.4,422.1,251.2z"/>
			<path fill="#BE6900" d="M404.7,297.8c0,0-5.5,2.7-7.8,1.1c0.9,2.4,0.5,1.4,1.5,4.1l-4.2,3.4c2.1,1-2.7,3.7,0,5.1
				c8.2,25.7,14.1,55.6,6.7,79.8c3.5-8.9,6.5-14.2,9.4-33.4c1.2-12,2-26.4-1.3-43.2c14.6,10,17.8,16,20.9,24.2
				C428.7,321.1,411.4,294,404.7,297.8z"/>
			<path fill="#FEE989" d="M106.1,70.1l0.9-6c2-0.1,1-0.1,4.4-0.3c-4.2-1.5-4.2-1.5-4.2-1.5l0.9-6.1c-3.9-3.1-28.7-6.9-36.7-2.1
				c5.7,1.3,8,4.1,15.5,6.9c-25.7,8.4-36.4,19-39.1,20.6C63.2,73.4,106.1,70.1,106.1,70.1z"/>
			<path fill="#FEE989" d="M49.9,249.7l-6.8-9.7c0.2-0.3,3.7-4.9,3.9-5.2c-3.5,1.2-3.7,1.2-6.1,2.1l-6.9-9.9
				C31,233,13.4,251.2,7.8,255.8c3.2-1.3,7.8-2.4,16.3-4.1c-4.4,15.3-5.6,30.2-3.7,48.3C21.7,284.8,49.9,249.7,49.9,249.7z"/>
			<path fill="#FEE989" d="M60.7,277.4l-6.9-6.4c1.8-3.8,1.3-2.7,2.4-5c-3.7,2.2-1.9,1.1-4.6,2.9l-7-6.5c-6,2.8-25,26.7-24.2,37.5
				c3.5-5.3,5.1-7,17.4-13.3c-7.1,35-0.6,63.4-0.6,63.4C36.3,328,60.7,277.4,60.7,277.4z"/>
			<path fill="#FEE989" d="M35.6,213.9l-1.9-6.5c2.1-2.2,0.9-1,5.2-5.2c-2-0.3-3.8-0.7-7.1-1.1l-2-6.9c-3.2,4.3-2.2,2.9-4.6,6.3
				c-0.6,0-1.1,0-1.7-0.1c13.6-26.7,29.4-39,41.8-48.1c-15.7,1.9-30,5.1-45.8,11.7c14.5-25.2,32.2-40.8,54.8-54.9
				c-7.4,0.7-15.4,2.1-23.4,4.3c5-1,11-1.8,18.4-2.6c-24.6,15.2-40.1,33.9-52.6,55.6c14-6,27.8-10.2,44.2-12.4
				C34,173.9,22,200.7,22,200.7l-0.4,0.1c1.4,1,1.2,0.9,2.3,1.7C7.4,228.7,9,247.7,8.2,254.1c4-16.3,12.4-31.9,23.4-44.5
				C33.2,211.3,35.6,213.9,35.6,213.9z"/>
			<path fill="#BE6900" d="M73.8,85.3c5.9,1.5,9.9,3.3,9.9,3.3l-1-7.5c3.4-1.5,1.9-0.8,4.4-1.9c-4.7-0.6-2.3-0.3-4.8-0.6l-1-7.6
				c-4.5,2.6-6.1,3.4-11.9,7.1c-5.7,0.2-15.3,2.1-21.7,3.7c4.7-0.3,6.6,0.4,14.5,1.3c-26.2,19.2-33.4,34.1-39.9,42.3
				C34,112,54.6,95,73.8,85.3z"/>
			<path fill="#FEE989" d="M75.6,320.6l-1.3-9.1c1.5-4.5-5.9-1.1-5.1-3.4c-3.6,2.5-2.8-6.3-5.3-4.5l-18.5-5.9
				c-1.1,5.4-8.2,34.7-8.2,52.2c2.8-5.9,4.5-9.3,15-17.3c-0.8,39.4,12.4,58.4,15.6,66.6C60.2,376,75.6,320.6,75.6,320.6z"/>
			<path fill="#FEE989" d="M127,395l-7.4-2.3c0-3.5,0-2.4,0-5c-1.5,2.3-0.8,1.3-2.6,4.1l-7.5-2.4c0.2,1.8-6.5,33.7-3.6,47.9
				c0.7-8,2.2-13.7,7.7-24.1c4,14.6,11.5,27.8,20.9,40c14.1,16.1,18.3,15.7,22.6,19.4C136.3,455.1,127,395,127,395z"/>
			<path fill="#BE6900" d="M163.9,430.4l-8.5,0.5c-0.8-2.7-0.5-1.6-1.4-4.7c-0.7,4.6-0.5,3.6-0.7,4.9l-8.6,0.5
				c1.8,4.4,10.7,34.7,12.9,41.6c-0.3-3.4-0.3-8.4,0.4-17.1c5.7,8.3,15.3,18.3,28.1,27.3c13.3,8.3,14,6.7,19.5,9.3
				C183.4,480.6,163.9,430.4,163.9,430.4z"/>
			<path fill="#FEE989" d="M101.1,373.4l-10.6-4.2c0-1.4,0-0.1,0-7.4c-1.9,2.1-3,3.4-4.8,5.5l-10.8-4.3c-3.4,2.7-10.7,24.1-6.5,37.9
				c1.4-4.8,2.1-6.2,11.9-13.9c8.9,30.4,23.5,45.1,25.6,50.2C98.4,421.3,101.1,373.4,101.1,373.4z"/>
		</g>
		<g>
			<radialGradient id="SVGID_1_" cx="225.2884" cy="25.7026" r="469.9026" gradientUnits="userSpaceOnUse">
				<stop  offset="1.034500e-02" style="stop-color:#FEDE58"/>
				<stop  offset="1" style="stop-color:#C2770A"/>
			</radialGradient>
			<path fill="url(#SVGID_1_)" d="M456.3,244.4c-4.2-17.6-13.2-33.8-25.8-46.7c-3.3-14.3-10.1-27.8-19.8-38.9
				c10.7,0.5,21.3,3,31.1,7.3c-4.4-25.2-17.5-48.9-38.2-63.6c12.1,1.8,23,4.6,33,11.5c-17.5-19.5-38.9-33.9-63.4-43.1
				c12.4-2.1,23.4-1.9,35.5,1.2c-18.6-10.7-38.3-16.2-59.7-16.5c12.2-5,25.3-7.9,38.4-9.1c-16.2-9.6-36.6-8.7-55.4-7.1
				c-6.5,0.6-13.2,1.2-19.8,2.3c6.8-7.5,14.3-14.1,22.1-20.5c-24.2,3-47.7,11.9-67.8,25.7c1.6-7.7,3.5-15.4,5.9-22.9
				c3-9.4,4.6-18.6,12.8-24.1c-23.3,3.9-43.3,15.8-59.2,35.4c-18.4-12.2-38.6-15.8-58.8-23.4c14.5,10.2,20.4,21,26.9,37.7
				c-21.8-15.3-45.1-19.1-71.7-21.5c8,6.1,15.6,12.8,22.6,20c-6.6-0.9-13.3-1.3-19.8-1.6c-18.9-1-37.6-2.8-53.5,7.4
				c13.2,0.7,24.6,4.7,37,9.3c-21.4,1-42.6,7.1-60.8,18.4c12-3.6,24.7-4,37.1-2.3c-24.2,10-45.8,25.8-62.5,45.9
				C36.5,115,54.2,111.6,71.8,110c-22.3,13.3-41.1,32.5-53.7,55.2c14.3-6.1,29.6-10.2,45.1-12.1C45.9,165.4,31.9,182,22.6,201
				c5.1,0,10.1,0.7,15.1,1.6c-15.1,14.2-25.8,32.9-29.9,53.2c11-9.4,24-15.5,37.7-19.9c-14.4,18.3-23.6,40.8-25.1,64.1
				c4.6-12.9,22.7-25.3,34.5-32.4C42,293,35.6,321.6,37.2,350c2.7-17.2,16.3-30.2,30.8-40.3c-10.4,29.3-10.6,62.1,0.3,91.3
				c-0.5-7.2,3.5-13.6,7.5-19.6c4.2-6.3,8.9-12.3,14-18c-0.5,25.6,4.8,51,16,74c-1.9-16.9,3.6-33.4,13.1-47.6
				c-0.8,31.7,13.4,63.8,38.5,83.3c-4.7-14.2-5.7-29.5-3.4-44.3c7.5,27.1,26.2,51.1,51.4,63.8c-5.1-10.9-6-23.3-4.4-35.3
				c5.4,13.6,14.6,26,23.5,37.8c12-9.5,22.5-20.8,31.1-33.4c2,7.5,2.8,15.4,2,23.2c25.9-13,46.7-35.4,58.7-61.7
				c2.7,14.4,2.1,29.4-2,43.4c24.4-20.4,37.5-52.9,35.6-84.6c10,13.9,16,29.9,14.7,46.9c10.4-23.4,14.9-48.7,13.5-74.2
				c5.3,5.5,10.2,11.3,14.6,17.5c4.2,5.9,8.4,11.8,8.1,19.1c9.9-29.6,8.6-62-2.8-90.9c14.9,9.5,28.5,21.5,31.7,38.6
				c0.7-28.4-6.3-56.2-20-81.1c6,3.3,11.7,6.9,17.2,11c7.4,5.4,14.5,11.1,17.9,19.7c-2.3-23.2-11.9-44.8-26.9-62.7
				C431.9,229.8,444.9,235.4,456.3,244.4z"/>
			<radialGradient id="SVGID_2_" cx="70.7945" cy="309.446" r="82.8341" gradientUnits="userSpaceOnUse">
				<stop  offset="0" style="stop-color:#000000"/>
				<stop  offset="1" style="stop-color:#A28E38"/>
			</radialGradient>
			<path fill="url(#SVGID_2_)" d="M78.9,377c-6.3-23.8-5.1-49.3,3.2-72.6c-6.1,4.2-12,9-16.9,14.5c-7.4,26.9-6.6,55.9,3.2,82.1
				c-0.5-7.2,3.5-13.6,7.5-19.6C76.8,379.9,77.8,378.5,78.9,377z"/>
			<radialGradient id="SVGID_3_" cx="161.3554" cy="163.1813" r="144.1743" gradientUnits="userSpaceOnUse">
				<stop  offset="0.6151" style="stop-color:#000000"/>
				<stop  offset="1" style="stop-color:#A28E38"/>
			</radialGradient>
			<path fill="url(#SVGID_3_)" d="M97.5,93.9c-11.4-1.6-22.9-1.2-34,2.1c16.7-10.4,36-15.9,55.6-16.8c-11.3-4.2-21.8-7.8-33.8-8.5
				c14.5-9.3,31.7-7.7,48.9-6.8c6,0.3,12.1,0.7,18.1,1.5c-6.4-6.6-13.3-12.7-20.5-18.2c-2.3-0.1-4.5-0.3-6.7-0.4
				c-18.9-1-37.6-2.8-53.5,7.4c13.2,0.7,24.6,4.7,37,9.3c-21.4,1-42.6,7.1-60.8,18.4c12-3.6,24.7-4,37.1-2.3
				c-24.2,10-45.8,25.8-62.5,45.9c13-9.7,29.1-13.3,45.4-15.1C77.1,103.8,87,98.2,97.5,93.9z"/>
			<radialGradient id="SVGID_4_" cx="40.262" cy="240.1793" r="56.9686" gradientUnits="userSpaceOnUse">
				<stop  offset="0" style="stop-color:#000000"/>
				<stop  offset="1" style="stop-color:#A28E38"/>
			</radialGradient>
			<path fill="url(#SVGID_4_)" d="M61.4,236.9c-8.4,2.7-16.6,6.2-24,10.7c-9.7,15.8-15.8,33.9-17,52.4c3-8.6,12.1-17,21.3-23.7
				C45.4,262,52.3,248.5,61.4,236.9z"/>
			<radialGradient id="SVGID_5_" cx="52.9397" cy="270.27" r="73.2296" gradientUnits="userSpaceOnUse">
				<stop  offset="0" style="stop-color:#000000"/>
				<stop  offset="1" style="stop-color:#A28E38"/>
			</radialGradient>
			<path fill="url(#SVGID_5_)" d="M69.9,265.9c-6.3,3.8-14.7,9.3-21.4,15.6C40,303.2,35.8,326.7,37.2,350c1.8-11.4,8.4-21,17-29.2
				C55.8,301.8,61.3,283,69.9,265.9z"/>
			<radialGradient id="SVGID_6_" cx="41.621" cy="166.108" r="86.7781" gradientUnits="userSpaceOnUse">
				<stop  offset="0" style="stop-color:#000000"/>
				<stop  offset="1" style="stop-color:#A28E38"/>
			</radialGradient>
			<path fill="url(#SVGID_6_)" d="M54.3,206.4c-4.6-0.8-9.2-1.4-13.8-1.5c8.5-17.4,21.4-32.5,37.1-43.7c-11.1,1.3-22,3.9-32.5,7.6
				c-9.1,9.5-16.7,20.3-22.4,32.1c5.1,0,10.1,0.7,15.1,1.6c-15.1,14.2-25.8,32.9-29.9,53.2c7-6,14.8-10.6,23-14.3
				C35.8,228.2,43.9,216.1,54.3,206.4z"/>
			<radialGradient id="SVGID_7_" cx="424.9113" cy="170.3891" r="72.1619" gradientUnits="userSpaceOnUse">
				<stop  offset="0" style="stop-color:#000000"/>
				<stop  offset="1" style="stop-color:#A28E38"/>
			</radialGradient>
			<path fill="url(#SVGID_7_)" d="M430.4,197.7c-2.2-9.2-5.8-18.1-10.6-26.3c-7.8-2.9-16.1-4.7-24.4-5.1c8.8,10.2,15,22.5,18.1,35.6
				c8.2,8.4,14.7,18.2,19.1,28.9c8.4,3.4,16.4,7.8,23.7,13.5C452.1,226.8,443.1,210.6,430.4,197.7z"/>
			<radialGradient id="SVGID_8_" cx="308.0587" cy="169.249" r="148.278" gradientUnits="userSpaceOnUse">
				<stop  offset="0.6711" style="stop-color:#000000"/>
				<stop  offset="1" style="stop-color:#A28E38"/>
			</radialGradient>
			<path fill="url(#SVGID_8_)" d="M334.3,21.3c-23.6,2.9-46.4,11.4-66.2,24.6c-1.8,6-3.3,12.1-4.6,18.2c18.4-12.6,39.9-20.7,62-23.5
				c-7.1,5.8-14,11.9-20.2,18.7c6-1,12.1-1.6,18.1-2.1c17.2-1.5,35.9-2.3,50.7,6.5c-12,1.1-24,3.7-35.1,8.3
				c19.6,0.2,37.6,5.3,54.6,15.1c-11.1-2.9-21.2-3.1-32.5-1.1c22.4,8.4,42,21.6,58,39.4c-9.2-6.3-19.1-8.8-30.2-10.5
				c15.3,10.8,26,27,31.7,44.9c7.3,1.2,14.4,3.3,21.1,6.2c-4.4-25.2-17.5-48.9-38.2-63.6c12.1,1.8,23,4.6,33,11.5
				c-17.5-19.5-38.9-33.9-63.4-43.1c12.4-2.1,23.4-1.9,35.5,1.2c-18.6-10.7-38.3-16.2-59.7-16.5c12.2-5,25.3-7.9,38.4-9.1
				c-16.2-9.6-36.6-8.7-55.4-7.1c-6.5,0.6-13.2,1.2-19.8,2.3C318.9,34.4,326.5,27.7,334.3,21.3z"/>
			<radialGradient id="SVGID_9_" cx="180.5022" cy="132.8657" r="144.1745" gradientUnits="userSpaceOnUse">
				<stop  offset="0.6151" style="stop-color:#000000"/>
				<stop  offset="1" style="stop-color:#A28E38"/>
			</radialGradient>
			<path fill="url(#SVGID_9_)" d="M134.8,47.3c23,2.2,43.3,6,62.4,19.4c-3.4-8.9-6.7-15.9-11.4-22c-19.5-11-40.3-14.3-63.5-16.4
				c8,6.1,15.6,12.8,22.6,20C141.6,47.9,138.2,47.5,134.8,47.3z"/>
			<radialGradient id="SVGID_10_" cx="224.364" cy="2.7795" r="71.1206" gradientUnits="userSpaceOnUse">
				<stop  offset="0" style="stop-color:#000000"/>
				<stop  offset="1" style="stop-color:#A28E38"/>
			</radialGradient>
			<path fill="url(#SVGID_10_)" d="M188.8,37.6c13,4.1,25.7,8,37.6,15.9c12.7-15.7,28.3-26,46.3-30.7c2.7-8.9,4.6-17.6,12.4-22.8
				c-23.3,3.9-43.3,15.8-59.2,35.4c-18.4-12.2-38.6-15.8-58.8-23.4C177.8,19.6,183.8,27.4,188.8,37.6z"/>
			<radialGradient id="SVGID_11_" cx="50.785" cy="123.9637" r="48.3962" gradientUnits="userSpaceOnUse">
				<stop  offset="0" style="stop-color:#000000"/>
				<stop  offset="1" style="stop-color:#A28E38"/>
			</radialGradient>
			<path fill="url(#SVGID_11_)" d="M85.5,121.7c-16.1,1.5-32.3,4.6-45.2,14.2c1.8-2.1,3.6-4.2,5.5-6.2c-11,10.4-20.4,22.4-27.8,35.6
				c9.4-4,19.1-7.1,29-9.3C57.6,142.2,70.7,130.5,85.5,121.7z"/>
			<radialGradient id="SVGID_12_" cx="331.6659" cy="375.6553" r="83.4467" gradientUnits="userSpaceOnUse">
				<stop  offset="0" style="stop-color:#000000"/>
				<stop  offset="1" style="stop-color:#A28E38"/>
			</radialGradient>
			<path fill="url(#SVGID_12_)" d="M339.9,370.7c1.4,24-6.5,48.4-22,66.7c0.4,9.9-0.8,19.8-3.6,29.3c22.4-18.8,35.3-47.6,35.8-76.7
				C347.7,383.2,344.2,376.7,339.9,370.7z"/>
			<radialGradient id="SVGID_13_" cx="368.4543" cy="349.9817" r="71.5461" gradientUnits="userSpaceOnUse">
				<stop  offset="0" style="stop-color:#000000"/>
				<stop  offset="1" style="stop-color:#A28E38"/>
			</radialGradient>
			<path fill="url(#SVGID_13_)" d="M365.7,345.7c1,17.9-1.2,35.6-6.5,52.5c4.2,9.7,6.3,20.1,5.5,30.8c9.6-21.6,14.2-44.8,13.7-68.3
				C374.4,355.4,370.2,350.4,365.7,345.7z"/>
			<radialGradient id="SVGID_14_" cx="395.3666" cy="300.8762" r="81.9895" gradientUnits="userSpaceOnUse">
				<stop  offset="0" style="stop-color:#000000"/>
				<stop  offset="1" style="stop-color:#A28E38"/>
			</radialGradient>
			<path fill="url(#SVGID_14_)" d="M383.9,295.9c9.1,22.9,11.1,48.2,5.7,72.1c1.1,1.4,2.2,2.8,3.2,4.3c4.2,5.9,8.4,11.8,8.1,19.1
				c8.8-26.4,8.8-55,0.5-81.4C396.4,304.6,390.3,300,383.9,295.9z"/>
			<radialGradient id="SVGID_15_" cx="422.9133" cy="230.8733" r="55.4147" gradientUnits="userSpaceOnUse">
				<stop  offset="0" style="stop-color:#000000"/>
				<stop  offset="1" style="stop-color:#A28E38"/>
			</radialGradient>
			<path fill="url(#SVGID_15_)" d="M402.2,227.7c9.5,11.3,16.6,24.3,20.8,38.2c1.4,0.9,2.8,1.9,4.1,2.9c7.4,5.4,14.5,11.1,17.9,19.7
				c-1.8-18.3-8.1-35.5-18.1-50.7C419.2,233.4,410.9,230.2,402.2,227.7z"/>
			<radialGradient id="SVGID_16_" cx="411.7375" cy="261.2512" r="71.6926" gradientUnits="userSpaceOnUse">
				<stop  offset="0" style="stop-color:#000000"/>
				<stop  offset="1" style="stop-color:#A28E38"/>
			</radialGradient>
			<path fill="url(#SVGID_16_)" d="M410.4,267c-5-3.7-10.3-7-15.8-10c9.2,16.8,15,34.9,17.3,53.7c8.8,7.7,15.7,16.8,17.9,28.3
				c0.5-23.2-4-46-13.1-67.1C414.7,270.2,412.6,268.6,410.4,267z"/>
			<radialGradient id="SVGID_17_" cx="99.7968" cy="357.8554" r="72.0436" gradientUnits="userSpaceOnUse">
				<stop  offset="0" style="stop-color:#000000"/>
				<stop  offset="1" style="stop-color:#A28E38"/>
			</radialGradient>
			<path fill="url(#SVGID_17_)" d="M110.4,406.1c-5.9-16.8-8.7-34.7-8.4-52.6c-4.4,4.9-8.4,10.1-12.1,15.5
				c0.3,23.7,5.6,47.1,16,68.4C104.7,426.6,106.5,416.1,110.4,406.1z"/>
			<radialGradient id="SVGID_18_" cx="137.7231" cy="382.5615" r="83.2062" gradientUnits="userSpaceOnUse">
				<stop  offset="0" style="stop-color:#000000"/>
				<stop  offset="1" style="stop-color:#A28E38"/>
			</radialGradient>
			<path fill="url(#SVGID_18_)" d="M152.9,443.6c-16.1-17.8-24.9-42-24.3-66c-4.1,6.2-7.4,12.8-9.5,19.7
				c1.5,29.1,15.3,57.7,38.4,75.7C154.3,463.6,152.8,453.6,152.9,443.6z"/>
			<radialGradient id="SVGID_19_" cx="201.4444" cy="423.8504" r="70.7762" gradientUnits="userSpaceOnUse">
				<stop  offset="0" style="stop-color:#000000"/>
				<stop  offset="1" style="stop-color:#A28E38"/>
			</radialGradient>
			<path fill="url(#SVGID_19_)" d="M200.4,467.5c-19.3-12.3-33.5-32.1-39.6-54.1c-2,12.3-1.4,24.9,2,36.9
				c9.6,18,24.5,33.2,42.7,42.4C201.8,484.8,200.4,476.2,200.4,467.5z"/>
			<radialGradient id="SVGID_20_" cx="228.6293" cy="442.3846" r="53.3422" gradientUnits="userSpaceOnUse">
				<stop  offset="0" style="stop-color:#000000"/>
				<stop  offset="1" style="stop-color:#A28E38"/>
			</radialGradient>
			<path fill="url(#SVGID_20_)" d="M255.7,461.8c0.3-6.2-0.4-12.4-2-18.3c-7.9,11.6-17.5,21.9-28.5,30.6
				c-8.1-10.8-16.5-22.2-21.5-34.6c-1.3,9.8-0.8,19.8,2.7,29c5.2,9.4,11.7,18.2,18.2,26.8C236.6,485.8,247.1,474.4,255.7,461.8
				C255.7,461.8,255.7,461.8,255.7,461.8z"/>
			<radialGradient id="SVGID_21_" cx="282.6503" cy="412.2701" r="69.9677" gradientUnits="userSpaceOnUse">
				<stop  offset="0" style="stop-color:#000000"/>
				<stop  offset="1" style="stop-color:#A28E38"/>
			</radialGradient>
			<path fill="url(#SVGID_21_)" d="M309.1,408.3c-10.8,23.8-29.6,44-52.8,56c1.6,6.8,2.1,13.8,1.4,20.7c21.8-11,39.9-28.5,52.3-49.5
				C311.1,426.5,310.8,417.3,309.1,408.3z"/>
			<radialGradient id="SVGID_22_" cx="233.3273" cy="254.2921" r="215.7325" gradientUnits="userSpaceOnUse">
				<stop  offset="0" style="stop-color:#C2770A"/>
				<stop  offset="0.9897" style="stop-color:#FFFFFF"/>
			</radialGradient>
			<path fill="url(#SVGID_22_)" d="M393.7,249.6c-3-15-9.5-28.9-18.6-39.9c-2.4-12.2-7.3-23.8-14.3-33.3c7.7,0.5,15.4,2.6,22.4,6.3
				c-3.2-21.5-12.6-41.8-27.6-54.3c8.8,1.6,16.6,3.9,23.8,9.8c-12.6-16.7-28-29-45.7-36.8c8.9-1.8,16.8-1.7,25.6,1.1
				c-13.4-9.1-27.6-13.9-43.1-14.1c4.9-14.3,20.1-25.9,29.6-26.9c-11.7-8.2-42.4,0-60.8,12.6c0.9-7.3,14.6-22,20.2-27.4
				c-17.5,2.6-40.3,14.8-60.5,29.7c1.1-6.6,15.4-50.4,21.3-55.1c-16.8,3.4-27,33-38.5,49.8c-13.3-10.4-27.9-13.5-42.4-20
				c10.5,8.7,14.7,17.9,19.4,32.2C188.9,70.3,172.1,67,153,65c5.8,5.2,11.2,10.9,16.3,17.1c-19.6-9.9-54.7-9.1-66.2-0.4
				c9.5,0.6,31.1,9.4,40,13.3c-15.5,0.8-30.7,6-43.8,15.7c8.7-3.1,17.8-3.5,26.8-2c-17.4,8.6-33,22.1-45.1,39.2
				c10.2-9,22.9-11.8,35.6-13.2c-16.1,11.4-29.6,27.8-38.7,47.2c10.3-5.3,21.3-8.7,32.5-10.3c-12.4,10.5-22.5,24.7-29.2,40.9
				c3.6,0,7.3,0.6,10.9,1.4C81,226,73.3,242.1,70.4,259.4c7.9-8,17.3-13.2,27.2-17c-10.4,15.7-17,34.9-18.1,54.8
				c3.3-11,16.4-21.7,24.8-27.7c-9.2,21.7-13.9,46.2-12.7,70.4c1.9-14.7,11.8-25.8,22.2-34.4c-7.5,25.1-7.6,53,0.2,78
				c-0.4-6.2,2.5-11.6,5.4-16.8c3.1-5.4,6.4-10.5,10.1-15.4c-0.4,21.9,3.5,43.6,11.5,63.2c-1.4-14.5,2.6-28.5,9.5-40.7
				c-0.6,27.1,9.7,54.5,27.8,71.2c-3.4-12.1-4.1-25.2-2.4-37.8c5.4,23.2,18.9,43.6,37,54.6c-3.7-9.3-4.3-19.9-3.2-30.1
				c3.9,11.6,10.5,22.2,16.9,32.3c8.7-8.1,16.2-17.8,22.4-28.6c1.5,6.4,2,13.2,1.4,19.8c18.7-11.1,33.6-30.2,42.3-52.7
				c2,12.3,0.3,16.6-2.7,28.7c17.6-17.5,28.3-36.7,26.9-63.8c7.2,11.9,11.5,25.6,10.6,40.1c7.5-20,10.7-41.6,9.7-63.4
				c3.8,4.7,7.3,9.7,10.5,14.9c3.1,5,6.1,10.1,5.9,16.3c7.1-25.3,6.2-53-2-77.7c10.7,8.2,20.5,18.4,22.9,33
				c0.5-24.3-4.6-48-14.4-69.3c4.3,2.8,8.5,5.9,12.4,9.4c5.4,4.6,10.5,9.5,12.9,16.8c-1.7-19.8-8.6-38.3-19.4-53.5
				C376.1,237.2,385.5,242,393.7,249.6z"/>
		</g>
		<g>
			
				<linearGradient id="SVGID_23_" gradientUnits="userSpaceOnUse" x1="203.7998" y1="458.2262" x2="203.2521" y2="377.6807" gradientTransform="matrix(1 6.800000e-03 -6.800000e-03 1 28.9748 -8.2326)">
				<stop  offset="0" style="stop-color:#576F7B"/>
				<stop  offset="0.5393" style="stop-color:#193540"/>
				<stop  offset="1" style="stop-color:#000D17"/>
			</linearGradient>
			<path fill="url(#SVGID_23_)" d="M289.4,385.2c0,0-12.5,31.3-12.6,40.8c-0.1,9.5-8,25.7-48.1,25.5c-40.1-0.3-46.3-16.7-47.8-26.1
				c-1.6-10.5-11-40.1-11-40.1l59.6-14.3L289.4,385.2z"/>
			<radialGradient id="SVGID_24_" cx="228.4918" cy="459.5444" r="78.5464" gradientUnits="userSpaceOnUse">
				<stop  offset="0" style="stop-color:#D4C4AC"/>
				<stop  offset="1" style="stop-color:#F7EEE1"/>
			</radialGradient>
			<polygon fill="url(#SVGID_24_)" points="229.6,349.5 229.5,349.5 228.7,350 			"/>
			<radialGradient id="SVGID_25_" cx="238.0331" cy="485.45" r="82.3923" gradientUnits="userSpaceOnUse">
				<stop  offset="0" style="stop-color:#D4C4AC"/>
				<stop  offset="1" style="stop-color:#FFFFFF"/>
			</radialGradient>
			<path fill="url(#SVGID_25_)" d="M280.5,403.5c-2.5,3.4-6.7,10-6.7,15.5c-0.1,7.9-7.5,21.4-44.8,21.1c-37.3-0.3-43.2-14-44.5-21.8
				c-1.1-6-4.6-12.3-6.7-15.6l-5.6,3.2c0,0,7.2,11.1,8.9,21.6c1.5,9.4,7.7,25.8,47.8,26.1c40,0.3,48-16,48.1-25.5
				c0.1-9.5,9.2-21.5,9.2-21.5L280.5,403.5z"/>
			<radialGradient id="SVGID_26_" cx="227.1325" cy="376.8615" r="66.5363" gradientUnits="userSpaceOnUse">
				<stop  offset="0" style="stop-color:#D4C4AC"/>
				<stop  offset="1" style="stop-color:#FFFFFF"/>
			</radialGradient>
			<path fill="url(#SVGID_26_)" d="M229.5,373.2L172.1,406c0,0,4.9,7.5,7.5,16c3.2,1.1,6.6,1.6,10,2.2c13,1.2,23.7-5.9,35.5-5.9
				c16.4-0.9,36.4,14.4,51.7,8.9c0.7-9.3,9.1-20.4,9.1-20.4L229.5,373.2z"/>
			<path fill="#FEE989" d="M434.3,85.2c-47.4-32.2-112.4,26.1-113,26.6c-7.8-4.9-18.8-11.3-22.2-11.9c-20.9-3.6-23.3-0.6-23.3-0.6
				c0-4,7.6-17.7,7.6-17.7c-9.9,0-26.3,9.4-26.3,9.4c0-9.8,10.8-17,10.8-17c-21.3,0-52.7,18.2-52.7,18.2
				c-24.8-17.3-61.6,14.5-61.6,14.5c7.6,0,10.7,0.1,15.1,0.2c-2,0.7-18.8,1.3-31.9,4.7c-0.6-0.6-65.7-58.8-113-26.6
				c-46.6,31.7-14.9,148.3,69.1,154.7C99.4,294,148,340.8,148,340.8c-6.8,28.7,28.3,42.1,53.2,37.4c26.3-4.9,26.7-24.6,26.7-24.6
				l1.1-10.4c-2.2-0.8-4.3-1.6-6.3-2.4h14.4c-2.7,1-5.4,1.8-8.1,2.4l1.1,10.4c0,0,0.4,19.7,26.7,24.6c24.9,4.7,60-8.7,53.2-37.4h0.9
				c0,0,46.6-45.9,54-100.9C449.1,233.8,480.9,116.9,434.3,85.2z"/>
			<radialGradient id="SVGID_27_" cx="239.3002" cy="110.0259" r="314.4634" gradientUnits="userSpaceOnUse">
				<stop  offset="0.3448" style="stop-color:#FEDE58"/>
				<stop  offset="1" style="stop-color:#C2770A"/>
			</radialGradient>
			<path fill="url(#SVGID_27_)" d="M434.3,92.3c-47.4-32.2-112.4,26.1-113,26.6c-11.1-2.8-13.9-9.8-28-14.1
				c-20.3-6.1-27.1-1.4-27.1-1.4c0-4,8.9-15.7,8.9-15.7c-9.9,0-26.2,11.6-26.2,11.6c0-9.8,12.6-23,12.6-23
				c-21.3,0-46.2,23.1-46.2,23.1c-24.8-17.3-49.2,4.5-49.2,4.5c11.9,0,20.2,4,20.2,4s-6.5-1-21.8,5.8l-14.7,3.5c0,0,4.1-1.2-9,2.2
				c-0.6-0.6-69.6-59.3-116.9-27.1C-22.9,124,8.9,240.6,92.8,247c6.6,54.1,55.1,100.9,55.1,100.9c-6.8,28.7,28.3,42.1,53.2,37.4
				c26.3-4.9,26.7-24.6,26.7-24.6l1.1-10.4c-2.2-0.8-4.3-1.6-6.3-2.4h14.4c-2.7,1-5.4,1.8-8.1,2.4l1.1,10.4c0,0,0.4,19.7,26.7,24.6
				c24.9,4.7,60-8.7,53.2-37.4h0.9c0,0,46.6-45.9,54-100.9C449.1,240.9,480.9,124,434.3,92.3z"/>
			<radialGradient id="SVGID_28_" cx="231.5284" cy="242.406" r="85.3847" gradientUnits="userSpaceOnUse">
				<stop  offset="0" style="stop-color:#A28E38"/>
				<stop  offset="0.1142" style="stop-color:#8D7B31"/>
				<stop  offset="0.542" style="stop-color:#413917"/>
				<stop  offset="0.8478" style="stop-color:#121006"/>
				<stop  offset="1" style="stop-color:#000000"/>
			</radialGradient>
			<path fill="url(#SVGID_28_)" d="M189,282.7c32-33.7,109.8-13.8,94.5,23.8c-5.7,14-29.7,23.8-44.5,26.9
				c-18.9,4-41.7-0.1-53.3-15.6C178.1,307.7,179.7,292.5,189,282.7z"/>
			<radialGradient id="SVGID_29_" cx="220.8358" cy="253.7809" r="63.4905" gradientUnits="userSpaceOnUse">
				<stop  offset="0" style="stop-color:#A28E38"/>
				<stop  offset="0.1142" style="stop-color:#8D7B31"/>
				<stop  offset="0.542" style="stop-color:#413917"/>
				<stop  offset="0.8478" style="stop-color:#121006"/>
				<stop  offset="1" style="stop-color:#000000"/>
			</radialGradient>
			<path fill="url(#SVGID_29_)" d="M189.2,283.7c23.8-25.1,81.6-10.3,70.2,17.7c-4.2,10.4-22,17.7-33.1,20c-14,2.9-31,0-39.6-11.6
				C181.1,302.4,182.3,291.1,189.2,283.7z"/>
			<radialGradient id="SVGID_30_" cx="371.0416" cy="58.5201" r="100.9358" gradientUnits="userSpaceOnUse">
				<stop  offset="0" style="stop-color:#A28E38"/>
				<stop  offset="1" style="stop-color:#000000"/>
			</radialGradient>
			<path fill="url(#SVGID_30_)" d="M434.3,92.3c-45.6-31-107.7,21.9-112.7,26.3l7.6,14.8c0.5,0.1,1,0.2,1.5,0.4
				c-2.8-0.7,52.5-62,99.8-29.8c12.2,8.3,22.9,31.1,24.8,47.6C457.9,126.8,451.3,103.9,434.3,92.3z"/>
			<radialGradient id="SVGID_31_" cx="54.4881" cy="58.6031" r="103.4958" gradientUnits="userSpaceOnUse">
				<stop  offset="0" style="stop-color:#A28E38"/>
				<stop  offset="1" style="stop-color:#000000"/>
			</radialGradient>
			<path fill="url(#SVGID_31_)" d="M140.7,119.4c-0.6-0.6-69.6-59.3-116.9-27.1c-17,11.6-23.6,34.5-21,59.3
				c1.9-16.5,7.4-38.5,19.6-46.8c47.4-32.2,111.9,31.5,112.6,32c0.1,0,0.2-0.1,0.3-0.1l8.7-18.1C143,118.8,141.9,119.1,140.7,119.4z
				"/>
			<radialGradient id="SVGID_32_" cx="233.4846" cy="236.9687" r="173.625" gradientUnits="userSpaceOnUse">
				<stop  offset="0.8103" style="stop-color:#000000"/>
				<stop  offset="0.8264" style="stop-color:#1C190A"/>
				<stop  offset="0.8533" style="stop-color:#453C18"/>
				<stop  offset="0.8808" style="stop-color:#675A23"/>
				<stop  offset="0.9089" style="stop-color:#81712C"/>
				<stop  offset="0.9376" style="stop-color:#938133"/>
				<stop  offset="0.9674" style="stop-color:#9E8B37"/>
				<stop  offset="1" style="stop-color:#A28E38"/>
			</radialGradient>
			<path fill="url(#SVGID_32_)" d="M321.6,118.6c-0.2,0.2-0.3,0.3-0.3,0.3c-11.1-2.8-13.9-9.8-28-14.1c-20.3-6.1-27.1-1.4-27.1-1.4
				c0-4,8.9-15.7,8.9-15.7c-6,0-18.2,5.8-26.1,10c1.2-9.6,12.4-21.3,12.4-21.3c-21.3,0-46.2,23.1-46.2,23.1
				c-24.8-17.3-49.2,4.5-49.2,4.5c11.9,0,20.2,4,20.2,4s-6.5-1-21.8,5.8l-14.7,3.5c0,0,3.4-0.9-5.6,1.4l-8.7,18.1
				c2.6-0.7,4.9-1.2,6.6-2.2c95.3-52.9,173.8-12.8,187.2-1.1L321.6,118.6z"/>
			<radialGradient id="SVGID_33_" cx="194.1826" cy="256.3096" r="90.0754" gradientUnits="userSpaceOnUse">
				<stop  offset="0.5705" style="stop-color:#E6B539"/>
				<stop  offset="1" style="stop-color:#FFFFFF"/>
			</radialGradient>
			<path fill="url(#SVGID_33_)" d="M144,306.9c-10.3-18.2,1.5-37.1,1.5-37.1s-32.7,9.8-53.2-23.3c0,0,2.8,52.4,57.6,96.1
				C152,340.4,157.7,331.1,144,306.9z"/>
			<defs>
				<filter id="Adobe_OpacityMaskFilter" filterUnits="userSpaceOnUse" x="147.1" y="311.6" width="163.8" height="74.6">
					<feColorMatrix  type="matrix" values="1 0 0 0 0  0 1 0 0 0  0 0 1 0 0  0 0 0 1 0"/>
				</filter>
			</defs>
			<mask maskUnits="userSpaceOnUse" x="147.1" y="311.6" width="163.8" height="74.6" id="SVGID_34_">
				<g filter="url(#Adobe_OpacityMaskFilter)">
					<radialGradient id="SVGID_35_" cx="228.1028" cy="268.7086" r="156.1967" gradientUnits="userSpaceOnUse">
						<stop  offset="0.5036" style="stop-color:#000000"/>
						<stop  offset="0.626" style="stop-color:#FFFFFF"/>
					</radialGradient>
					<path fill="url(#SVGID_35_)" d="M157.5,313.7l34.9,6.8l83.6,1.8l22.6-8.6c0,0,23.7,10.9,24.1,35.8
						c0.4,24.9-47.7,80.7-47.7,80.7s-95.1,9.5-95.4,9.1c-0.3-0.4-48.5-81.2-48.5-81.2L157.5,313.7z"/>
				</g>
			</mask>
			<g mask="url(#SVGID_34_)">
				<radialGradient id="SVGID_36_" cx="228.1028" cy="319.6595" r="84.5315" gradientUnits="userSpaceOnUse">
					<stop  offset="0.1828" style="stop-color:#C2770A"/>
					<stop  offset="0.5789" style="stop-color:#D4C4AC"/>
					<stop  offset="1" style="stop-color:#E1D3BF"/>
				</radialGradient>
				<path fill="url(#SVGID_36_)" d="M229,350.3l-1.1,10.4c0,0-0.4,19.7-26.7,24.6c-26.2,4.9-63.8-10.2-51.8-42.2
					c0,0,22.6-18.9,15.6-31.5l15.7,6.3C180.7,317.8,188.5,335.9,229,350.3L229,350.3z"/>
				<radialGradient id="SVGID_37_" cx="228.1028" cy="319.6595" r="84.5319" gradientUnits="userSpaceOnUse">
					<stop  offset="0.1828" style="stop-color:#C2770A"/>
					<stop  offset="0.5789" style="stop-color:#D4C4AC"/>
					<stop  offset="1" style="stop-color:#E4D7C5"/>
				</radialGradient>
				<path fill="url(#SVGID_37_)" d="M229,350.3l1.1,10.4c0,0,0.4,19.7,26.7,24.6c26.3,4.9,63.9-10.2,51.8-42.2
					c0,0-22.6-18.9-15.6-31.5l-17,10.8C276,322.3,251.6,345.6,229,350.3z"/>
			</g>
			<radialGradient id="SVGID_38_" cx="230.6573" cy="314.9942" r="43.5574" gradientUnits="userSpaceOnUse">
				<stop  offset="0.5041" style="stop-color:#714F35"/>
				<stop  offset="0.6148" style="stop-color:#8E725E"/>
				<stop  offset="0.8621" style="stop-color:#D5CBC4"/>
				<stop  offset="1" style="stop-color:#FFFFFF"/>
			</radialGradient>
			<path fill="url(#SVGID_38_)" d="M198.4,333.6c-6.9-2.6-12.5,6-7.4,11.3c2.9,3,6.6,5.9,11.4,8.4c3.7,2,3.6-1.3,7.1-1.5
				c1.6-0.1,9.9,3.4,11.2,4.3c6.4,4.6,8.4,11.8,8.4,11.8s4.2-7.2,9.9-11.2c0.9-0.6,5.6-2.7,6.7-2.9c5.8-1.1,7,2,11.3-0.3
				c3.4-1.8,6.2-3.8,8.6-5.9c5.6-5,0.4-14.1-6.7-11.7C235.1,343.7,213,339,198.4,333.6z"/>
			<radialGradient id="SVGID_39_" cx="253.3959" cy="252.3561" r="109.2046" gradientUnits="userSpaceOnUse">
				<stop  offset="0.5705" style="stop-color:#E6B539"/>
				<stop  offset="1" style="stop-color:#FFFFFF"/>
			</radialGradient>
			<path fill="url(#SVGID_39_)" d="M364.9,247c-13.1,27.6-52.4,22.8-52.4,22.8s11.8,19,1.5,37.1c-16.1,28.4-5.5,36.2-5.5,36.2
				l-18.5,17.2c32.7-24,52.3-47.6,63.7-68.9C358.1,270.9,367.9,267.9,364.9,247z"/>
			<radialGradient id="SVGID_40_" cx="419.9967" cy="228.0405" r="119.6103" gradientUnits="userSpaceOnUse">
				<stop  offset="0.1743" style="stop-color:#FFFFFF"/>
				<stop  offset="1" style="stop-color:#C2770A"/>
			</radialGradient>
			<path fill="url(#SVGID_40_)" d="M359.4,233.4c40.4,28.9,127.8-90.5,65.6-119c-70.7-32.5-91,60.2-91,60.2S359.4,183,359.4,233.4z"
				/>
			
				<radialGradient id="SVGID_41_" cx="2628.6108" cy="228.0405" r="119.5971" gradientTransform="matrix(-1 0 0 1 2667.75 0)" gradientUnits="userSpaceOnUse">
				<stop  offset="0.1743" style="stop-color:#FFFFFF"/>
				<stop  offset="1" style="stop-color:#C2770A"/>
			</radialGradient>
			<path fill="url(#SVGID_41_)" d="M99.7,233.4c-40.4,28.9-127.8-90.5-65.6-119c70.7-32.5,91,60.2,91,60.2S99.7,183,99.7,233.4z"/>
			<path fill="#BE6900" d="M278.4,285c0.5,0-2.4-5.8-11.7-9.3c-15.9-5.9-40.6-14.9-74.5,2.2c-8.7,4.4-12.7,9.1-12.6,9.1
				c-0.2,0.1,2.3-6.2,11.2-11.8c33-21,50.6-16.5,77.1-2.3C277.4,278.1,278.9,285.2,278.4,285z"/>
			<path fill="#7D7D7D" d="M290.2,383c-4.2,5.7-13.4,67.7-61.2,67.7c-44.3,0-55.1-57.4-59.1-66.7c-0.2,0.1-0.5,0.2-0.7,0.3
				c-0.3,0.1-0.7,0.2-1,0.2c2.1,3.3,11,34.4,11.4,44.4c-0.3,8.5,6.6,17.7,16.4,21.8c17.1,8,48.9,8,66,0c9.8-4.2,16.7-13.4,16.4-21.8
				c0.5-11.6,11.7-42.4,13.4-45C291.2,383.7,290.6,383.4,290.2,383z"/>
			<path fill="#BE6900" d="M149.4,343.1c0,0.2,3-3.7,1.9-10.5c-0.8-6.6-4.9-15.2-10-24.3c-6-10.5-4.2-22-1.6-28.5
				c2.7-6.8,5.8-10.1,5.8-10.1c0.5-0.6-8.6,17.9,1.1,35.6c5.4,9.5,8.4,19.6,7.8,27.2C153.9,340.4,149.3,343.4,149.4,343.1z"/>
			<path fill="#BE6900" d="M308.6,343.1c0.1,0.3-4.5-2.7-4.9-10.5c-0.7-7.6,2.4-17.6,7.8-27.2c9.7-17.7,0.5-36.2,1.1-35.6
				c0,0,3.1,3.3,5.7,10.1c2.6,6.5,4.4,18-1.6,28.5c-5.1,9.1-9.2,17.6-10,24.3C305.5,339.4,308.5,343.3,308.6,343.1z"/>
			<path fill="#BE6900" d="M359.8,247.2c0,0,41.9-1,70.7-40.8c29.5-39.7,24.2-79.1,24.2-79.1c-0.2,0,3,9.4,1.9,25.3
				c-2.5,41.1-31.5,82.8-71.6,92.2C369.5,248.5,359.7,247,359.8,247.2z"/>
			<path fill="#FEE989" d="M454.7,127.3c-0.3,0.2-1.3-9.7-9.7-21.8C437,93.3,417.1,83.4,395.1,86c-36.6,4-73.9,32.9-73.9,32.9
				s32.5-34.3,73.3-38.9c24.1-3,46,9.9,53,23.9C455,117.6,454.3,127.5,454.7,127.3z"/>
			<path fill="#FEE989" d="M441.7,128.9c-0.5-0.1,6.5,7.4,6.4,22.6c0.3,35.4-34.4,80.5-66,86.8c-15.5,3-23-5.5-22.7-4.8
				c-0.2-0.5,8.2,6.3,22,1.9c27.8-8.6,60.7-52.7,63.7-84C446.7,137.1,441.3,128.9,441.7,128.9z"/>
			<path fill="#FEE989" d="M359.4,233.4c-0.3,0.1-2.1-15.4-7.8-32.2c-5-17.3-17.3-27.1-17.6-26.6c-1.2-0.7,16.2,3,23.3,24.6
				C363.5,218,359,233.6,359.4,233.4z"/>
			<path fill="#BE6900" d="M334,174.6c0,0,6-45.8,38.7-64.1c20.4-11.1,41.8-3.6,53.3,2.7c12.7,7,15.6,16.1,15.7,15.7
				c-0.1,0.3-4.5-7.9-17-13c-38.7-15.5-63.2,1.5-82.3,38.4C336.4,166.5,334,174.7,334,174.6z"/>
			<path fill="#BE6900" d="M98.2,247.2c0.1-0.3-11.6,1.5-29.6-3.9c-47.4-13.9-77-73.7-66.5-117.5c4.2-18.6,14.1-26.4,13.7-26.4
				c0.4,0-8.2,8.9-10.7,27c-6.2,41,20.9,97.1,64.6,114.2C86.5,247.2,98.3,246.9,98.2,247.2z"/>
			<path fill="#FEE989" d="M15.8,99.4c0.1,0.2,4-6.9,15.3-12.9c10.9-6.4,29.7-9.1,48.1-3.4c37.2,11.6,61.5,37,61.5,36.4
				c0,0-66.6-47.8-108.3-30.2C21,93.5,15.9,99.5,15.8,99.4z"/>
			<path fill="#FEE989" d="M15.1,133.8c0,0-10.4,27,22.6,69.4c12.7,16.4,27.9,28.6,40.9,32.4c13.3,3.9,21.4-2.6,21.2-2.1
				c0.2-0.6-6.9,7.6-21.9,5.1c-30.4-5.3-64-47.4-66.4-82.3C10.3,141.7,15.4,133.7,15.1,133.8z"/>
			<path fill="#FEE989" d="M99.7,233.4c0.4,0.2-4.1-15.4,2.1-34.2c7.1-21.6,24.5-25.3,23.3-24.6c-0.4-0.5-12.6,9.3-17.6,26.6
				C101.8,218.1,100.1,233.5,99.7,233.4z"/>
			<path fill="#BE6900" d="M125.1,174.6c0,0-13.4-45.1-43.8-60c-18.7-8.8-38.9-2.5-50.9,3.4c-12.4,6.5-15.2,16.1-15.4,15.7
				c0.3,0.5,1.4-9.8,13.8-18.3c11.7-7.4,33.1-16.2,55-6.3C118.7,126.6,125.1,174.6,125.1,174.6z"/>
			<g>
				<radialGradient id="SVGID_42_" cx="165.4708" cy="203.8548" r="68.8746" gradientUnits="userSpaceOnUse">
					<stop  offset="0" style="stop-color:#FFFFFF"/>
					<stop  offset="1" style="stop-color:#D1CFD3"/>
				</radialGradient>
				<path fill="url(#SVGID_42_)" d="M193.6,217c13.3,5.8,19.3,21.3,13.4,34.6c-5.8,13.3-21.3,19.2-34.6,13.4
					c-13.2-5.9-19.2-21.3-13.4-34.6C164.9,217.1,180.3,211.1,193.6,217z"/>
				<path fill="#BE6900" d="M204.1,261.2c-4.1,4.5-8.3,7.7-16,9.5c-28,4.9-45.8-26.7-26.3-48.2C189.7,196.9,226.6,233.9,204.1,261.2
					z M193.3,217.5c-32.3-12.4-51.1,32.6-20.7,46.9c10.5,4.3,20.9,1.7,27.6-4.5C213.3,247.6,211.2,226.5,193.3,217.5L193.3,217.5z"
					/>
				
					<radialGradient id="SVGID_43_" cx="3183.8025" cy="-2981.4949" r="20.8598" gradientTransform="matrix(-0.1945 -0.9809 0.9809 -0.1945 3733.8391 2801.531)" gradientUnits="userSpaceOnUse">
					<stop  offset="0" style="stop-color:#07163F"/>
					<stop  offset="1" style="stop-color:#000000"/>
				</radialGradient>
				<path fill="url(#SVGID_43_)" d="M190.5,232.9c6.9,3.1,10,11.1,7,18c-3.1,6.9-11.1,10-18,7c-6.9-3-10.1-11.1-7-18
					C175.6,233,183.6,229.8,190.5,232.9z"/>
				<radialGradient id="SVGID_44_" cx="171.3508" cy="239.2416" r="14.3069" gradientUnits="userSpaceOnUse">
					<stop  offset="0.6252" style="stop-color:#FFFFFF"/>
					<stop  offset="0.9375" style="stop-color:#000000"/>
				</radialGradient>
				<path fill="url(#SVGID_44_)" d="M168.5,225.3c-7.7,1.5-12.8,9.1-11.2,16.8c3.7,18.5,31.7,13,28.1-5.6
					C183.8,228.8,176.3,223.7,168.5,225.3z"/>
			</g>
			<g>
				
					<radialGradient id="SVGID_45_" cx="7292.6963" cy="203.8548" r="68.8746" gradientTransform="matrix(-1 0 0 1 7585.23 0)" gradientUnits="userSpaceOnUse">
					<stop  offset="0" style="stop-color:#FFFFFF"/>
					<stop  offset="1" style="stop-color:#D1CFD3"/>
				</radialGradient>
				<path fill="url(#SVGID_45_)" d="M264.4,217c-13.3,5.8-19.3,21.3-13.4,34.6c5.8,13.3,21.3,19.2,34.6,13.4
					c13.2-5.9,19.2-21.3,13.4-34.6C293.2,217.1,277.7,211.1,264.4,217z"/>
				<path fill="#BE6900" d="M253.9,261.2c4.1,4.5,8.3,7.7,16,9.5c28,4.9,45.8-26.7,26.3-48.2C268.3,196.9,231.4,233.9,253.9,261.2z
					 M264.7,217.5c32.3-12.4,51.1,32.6,20.7,46.9c-10.5,4.3-20.9,1.7-27.6-4.5C244.7,247.6,246.8,226.5,264.7,217.5L264.7,217.5z"/>
				
					<radialGradient id="SVGID_46_" cx="3208.3442" cy="-3099.9792" r="20.8599" gradientTransform="matrix(-0.1945 -0.9809 0.9809 -0.1945 3944.8418 2801.531)" gradientUnits="userSpaceOnUse">
					<stop  offset="0" style="stop-color:#07163F"/>
					<stop  offset="1" style="stop-color:#000000"/>
				</radialGradient>
				<path fill="url(#SVGID_46_)" d="M280.6,231.9c6.9,3.1,10,11.1,7,18c-3.1,6.9-11.1,10-18,7c-6.9-3-10.1-11.1-7-18
					C265.6,231.9,273.6,228.8,280.6,231.9z"/>
				
					<radialGradient id="SVGID_47_" cx="54.118" cy="236.2978" r="14.3069" gradientTransform="matrix(1 0 0 1 211.0028 0)" gradientUnits="userSpaceOnUse">
					<stop  offset="0.6252" style="stop-color:#FFFFFF"/>
					<stop  offset="0.9375" style="stop-color:#000000"/>
				</radialGradient>
				<path fill="url(#SVGID_47_)" d="M262.3,222.3c-7.7,1.5-12.8,9.1-11.2,16.8c3.7,18.5,31.7,13,28.1-5.6
					C277.6,225.8,270.1,220.7,262.3,222.3z"/>
			</g>
			<radialGradient id="SVGID_48_" cx="202.7147" cy="397.8687" r="59.3223" gradientUnits="userSpaceOnUse">
				<stop  offset="0" style="stop-color:#D4C4AC"/>
				<stop  offset="1" style="stop-color:#FFFFFF"/>
			</radialGradient>
			<path fill="url(#SVGID_48_)" d="M226.3,360.4c-2.8,6.1-9.3,14.1-24.7,17c-22,4.1-51.9-5.8-54-27.9c-5.1,27.6,29.1,40.4,53.6,35.8
				c26.3-4.9,26.7-24.6,26.7-24.6l1.1-10.4c-0.8-0.3-1.6-0.6-2.3-0.9C227.9,353,227.9,356.9,226.3,360.4z"/>
			<radialGradient id="SVGID_49_" cx="284.6003" cy="397.8793" r="59.3368" gradientUnits="userSpaceOnUse">
				<stop  offset="0" style="stop-color:#D4C4AC"/>
				<stop  offset="1" style="stop-color:#FFFFFF"/>
			</radialGradient>
			<path fill="url(#SVGID_49_)" d="M257.2,377.4c-2.3-0.4-4.3-1-6.2-1.6c-11.5-3.8-18.7-14.8-18.4-26.4c-1.2,0.3-2.4,0.6-3.6,0.9
				l1.1,10.4c0,0,0.4,19.7,26.7,24.6c23.6,4.4,56.4-7.3,54-33C306.5,372.4,278.2,381.3,257.2,377.4z"/>
			<radialGradient id="SVGID_50_" cx="141.2148" cy="361.6823" r="50.7047" gradientUnits="userSpaceOnUse">
				<stop  offset="0" style="stop-color:#C2770A"/>
				<stop  offset="9.104604e-02" style="stop-color:#A36408"/>
				<stop  offset="0.2554" style="stop-color:#724606"/>
				<stop  offset="0.4183" style="stop-color:#492D04"/>
				<stop  offset="0.5767" style="stop-color:#291902"/>
				<stop  offset="0.7291" style="stop-color:#120B01"/>
				<stop  offset="0.8732" style="stop-color:#050300"/>
				<stop  offset="1" style="stop-color:#000000"/>
			</radialGradient>
			<path fill="url(#SVGID_50_)" d="M162.9,338.2c5.2-5.4,12.7-14.6,12.1-22.6l-10-4c6.9,12.6-15.6,31.5-15.6,31.5
				c-11.5,30.6,22.3,45.7,48.3,42.7c-18.6-0.6-38.2-9.7-41.4-26.3C154.8,351.8,157.5,343.9,162.9,338.2z"/>
			
				<radialGradient id="SVGID_51_" cx="7280.3599" cy="361.6823" r="50.7047" gradientTransform="matrix(-1 0 0 1 7596.9873 0)" gradientUnits="userSpaceOnUse">
				<stop  offset="0" style="stop-color:#C2770A"/>
				<stop  offset="9.104604e-02" style="stop-color:#A36408"/>
				<stop  offset="0.2554" style="stop-color:#724606"/>
				<stop  offset="0.4183" style="stop-color:#492D04"/>
				<stop  offset="0.5767" style="stop-color:#291902"/>
				<stop  offset="0.7291" style="stop-color:#120B01"/>
				<stop  offset="0.8732" style="stop-color:#050300"/>
				<stop  offset="1" style="stop-color:#000000"/>
			</radialGradient>
			<path fill="url(#SVGID_51_)" d="M294.9,338.2c-5.2-5.4-12.7-14.6-12.1-22.6l10-4c-6.9,12.6,15.6,31.5,15.6,31.5
				c11.5,30.6-22.3,45.7-48.3,42.7c18.6-0.6,38.2-9.7,41.4-26.3C303.1,351.8,300.4,343.9,294.9,338.2z"/>
			<linearGradient id="SVGID_52_" gradientUnits="userSpaceOnUse" x1="197.8564" y1="385.8964" x2="197.8564" y2="414.3667">
				<stop  offset="0" style="stop-color:#555454"/>
				<stop  offset="1" style="stop-color:#FFFFFF"/>
			</linearGradient>
			<path fill="url(#SVGID_52_)" d="M188.8,388.6c0,0-2.1,15.6,12.7,24.1c14.7,8.5-7.1-17.9,3.2-24.1S188.8,388.6,188.8,388.6z"/>
			
				<linearGradient id="SVGID_53_" gradientUnits="userSpaceOnUse" x1="182.3932" y1="385.8964" x2="182.3932" y2="414.3667" gradientTransform="matrix(-1 0 0 1 447.5398 0)">
				<stop  offset="0" style="stop-color:#555454"/>
				<stop  offset="1" style="stop-color:#FFFFFF"/>
			</linearGradient>
			<path fill="url(#SVGID_53_)" d="M274.2,388.6c0,0,2.1,15.6-12.7,24.1c-14.7,8.5,7.1-17.9-3.2-24.1
				C248.1,382.5,274.2,388.6,274.2,388.6z"/>
			<path fill="#7D7D7D" d="M312.2,347.2c-1-3.3-3.1-6.2-5.7-8.5c-2.1-1.9-4-3.8-5.7-5.6c-5.1-5.5-8.1-10.9-8.6-15.1
				c-0.6-4.2,0.9-6.4,0.8-6.4c0.2,0-1.7,2-1.7,6.5c-0.1,7.6,6.6,16.9,12.7,23.4c2.1,2.3,3.6,5.1,4.1,8.2c0.4,2.3,0.6,5,0.3,7.2
				c-2.2,26.9-56.2,34.2-72.9,14.5c-5.8-6.2-4.5-11.2-6.4-21c0,0.7,0,1.4,0,2.1c0-0.7,0-1.4,0-2.1c-1.8,9.8,0.4,15-5.4,21.2
				c-16.8,19.8-71.7,12-73.9-14.7c-0.1-0.6-0.1-1.2-0.2-1.8c-0.1-5.4,1.9-10.7,5.6-14.7c1.6-1.8,3-3.5,4.3-5.3
				c11.8-15.7,5.6-23.4,5.6-23.4c-0.2,0,1.3,2.2,0.8,6.4c-0.9,7.4-9,16.1-15.4,21.6c-1.7,1.5-3.1,3.4-3.9,5.6c-1.6,4-1.8,7.4-1.8,12
				c0.7,32.6,63.6,43.2,82.1,17.9c1.6-2.1,4.7-2.1,6.2,0.1c9.5,13.9,36.8,18.6,59.3,8.8C307.7,377.7,317,362.6,312.2,347.2z"/>
			<path fill="#FEE989" d="M135,139.1c4.2-12.6,16.3-22.4,29.3-25.4c-5.8,0.8-11.9-1.4-17.3,0.7c-4.7,1.8-7.8,6.4-9.7,11.1
				C135.5,129.7,135.4,134.5,135,139.1z"/>
			<path fill="#FEE989" d="M330.6,139.1c-4.2-12.6-24.4-31.3-37.4-34.2c5.8,0.8,8.1-5.4,28,7c4.3,2.7,5.1,9,7,13.6
				C330,129.7,330.2,134.5,330.6,139.1z"/>
			<radialGradient id="SVGID_54_" cx="228.5343" cy="82.2352" r="133.3266" gradientUnits="userSpaceOnUse">
				<stop  offset="0" style="stop-color:#A28E38"/>
				<stop  offset="0.1142" style="stop-color:#8D7B31"/>
				<stop  offset="0.542" style="stop-color:#413917"/>
				<stop  offset="0.8478" style="stop-color:#121006"/>
				<stop  offset="1" style="stop-color:#000000"/>
			</radialGradient>
			<path fill="url(#SVGID_54_)" d="M198.7,120.5c-29.6,8.7-44.2,15.4-58,40.7c-3,5.4-6.6,23.5-3.5,28.8c2.6,4.4,8.2,6,13.3,6.8
				c38.5,5.9,30.8,10.4,75.6,19.7c26.6,5.5,55.9-24.6,85.5-10c7.5,3.7,14.4-15.5,15.2-27c1.3-17.8-6.9-37.1-22.2-46.7
				c-6.5-4.1-13.9-6.7-21.2-9.2C258.3,115,224.4,112.9,198.7,120.5z"/>
			<radialGradient id="SVGID_55_" cx="212.7177" cy="96.9668" r="106.0933" gradientUnits="userSpaceOnUse">
				<stop  offset="0" style="stop-color:#A28E38"/>
				<stop  offset="0.1142" style="stop-color:#8D7B31"/>
				<stop  offset="0.542" style="stop-color:#413917"/>
				<stop  offset="0.8478" style="stop-color:#121006"/>
				<stop  offset="1" style="stop-color:#000000"/>
			</radialGradient>
			<path fill="url(#SVGID_55_)" d="M156.7,164.5c23.9-33.7,59.3-44.8,91.5-35.8c49.8,13.9,34.5,67.8-15.8,79.6
				c-22.7,5.3-47.1,7.3-67.6-6c-6.1-4-11.9-9.5-13.6-16.6C149.5,178.4,152.3,170.7,156.7,164.5z"/>
			<radialGradient id="SVGID_56_" cx="226.8097" cy="289.0162" r="58.9797" gradientUnits="userSpaceOnUse">
				<stop  offset="0" style="stop-color:#67482F"/>
				<stop  offset="1" style="stop-color:#422D17"/>
			</radialGradient>
			<path fill="url(#SVGID_56_)" d="M197.4,343.1c-3.4-2.6-11.4-7.2-7.3-14.1c4.1-6.9,18.2-10.9,41.9-10.9c23.6,0,33.3,9.6,35.1,14
				c1.9,4.7-38.1,11-38.1,11L197.4,343.1z"/>
			<radialGradient id="SVGID_57_" cx="227.1293" cy="285.5767" r="74.592" gradientUnits="userSpaceOnUse">
				<stop  offset="0" style="stop-color:#714F35"/>
				<stop  offset="5.119717e-02" style="stop-color:#694A30"/>
				<stop  offset="0.2358" style="stop-color:#543A22"/>
				<stop  offset="0.4385" style="stop-color:#442F19"/>
				<stop  offset="0.671" style="stop-color:#3B2813"/>
				<stop  offset="1" style="stop-color:#382611"/>
			</radialGradient>
			<path fill="url(#SVGID_57_)" d="M198.4,326.4c-6.9-2.6-12.5,6-7.4,11.3c2.9,3,6.6,5.9,11.4,8.4c3.7,2,3.6-1.3,7.1-1.5
				c1.6-0.1,9.9,3.4,11.2,4.3c6.4,4.6,8.4,11.8,8.4,11.8s4.2-7.2,9.9-11.2c0.9-0.6,5.6-2.7,6.7-2.9c5.8-1.1,7,2,11.3-0.3
				c3.4-1.8,6.2-3.8,8.6-5.9c5.6-5,0.4-14.1-6.7-11.7C235.1,336.6,213,331.9,198.4,326.4z"/>
			<linearGradient id="SVGID_58_" gradientUnits="userSpaceOnUse" x1="230.5438" y1="335.134" x2="230.5438" y2="357.2522">
				<stop  offset="0" style="stop-color:#714F35"/>
				<stop  offset="2.217114e-03" style="stop-color:#725036"/>
				<stop  offset="9.591639e-02" style="stop-color:#937965"/>
				<stop  offset="0.1933" style="stop-color:#AF9C8E"/>
				<stop  offset="0.2969" style="stop-color:#C8BBB1"/>
				<stop  offset="0.4059" style="stop-color:#DCD4CD"/>
				<stop  offset="0.5221" style="stop-color:#ECE7E3"/>
				<stop  offset="0.649" style="stop-color:#F7F4F3"/>
				<stop  offset="0.7943" style="stop-color:#FDFDFC"/>
				<stop  offset="1" style="stop-color:#FFFFFF"/>
			</linearGradient>
			<path fill="url(#SVGID_58_)" d="M258.3,337.7c-7.1-2.4-13,1-18.7,6c-8.4,7.3-18,1.8-23-3.9c-4.5-5-11.6-4.5-15.1,0.2
				c-0.6,0.6-1,1.3-1.1,2c-0.4,1.6,0.5,3.3,2,4c0,0,0,0,0,0c3.7,2,3.4-3.9,6.8-4.6c7.4-1.6,10.2,6.5,11.5,7.4
				c6.4,4.6,8.4,11.8,8.4,11.8s4.5-8.2,10.3-12.2c0.9-0.6,3.7-5.2,8.5-5.9c5.8-0.9,4.8,6,9.2,3.7c0.6-0.3,1.2-0.7,1.8-1
				C261.7,343.5,261.5,339.1,258.3,337.7L258.3,337.7z"/>
			<radialGradient id="SVGID_59_" cx="200.06" cy="317.8822" r="66.5815" gradientUnits="userSpaceOnUse">
				<stop  offset="0" style="stop-color:#B4A598"/>
				<stop  offset="0.305" style="stop-color:#81766D"/>
				<stop  offset="1" style="stop-color:#000000"/>
			</radialGradient>
			<path fill="url(#SVGID_59_)" d="M201.9,330.5c14.6,5.5,36.8,10.2,60.5,2.2c1.9-0.6,3.6-0.4,5.1,0.3c-1.2-3.2-4.6-5.7-8.7-4.3
				c-23.7,7.9-45.9,3.2-60.5-2.2c-6.9-2.6-12.5,6-7.4,11.3c0.7,0.7,1.5,1.5,2.3,2.2C190.7,334.7,195.8,328.2,201.9,330.5z"/>
			<defs>
				<filter id="Adobe_OpacityMaskFilter_1_" filterUnits="userSpaceOnUse" x="165" y="311.6" width="127.9" height="2.3">
					<feColorMatrix  type="matrix" values="1 0 0 0 0  0 1 0 0 0  0 0 1 0 0  0 0 0 1 0"/>
				</filter>
			</defs>
			<mask maskUnits="userSpaceOnUse" x="165" y="311.6" width="127.9" height="2.3" id="SVGID_60_">
				<g filter="url(#Adobe_OpacityMaskFilter_1_)">
					<radialGradient id="SVGID_61_" cx="228.5074" cy="260.8062" r="156.1967" gradientUnits="userSpaceOnUse">
						<stop  offset="0.5036" style="stop-color:#000000"/>
						<stop  offset="0.626" style="stop-color:#FFFFFF"/>
					</radialGradient>
					<path fill="url(#SVGID_61_)" d="M157.9,305.8l34.9,6.8l83.6,1.8l22.6-8.6c0,0,23.7,10.9,24.1,35.8
						c0.4,24.9-47.7,80.7-47.7,80.7s-95.1,9.5-95.4,9.1s-48.5-81.2-48.5-81.2L157.9,305.8z"/>
				</g>
			</mask>
			<g mask="url(#SVGID_60_)">
				<g>
					<radialGradient id="SVGID_62_" cx="166.4005" cy="311.8241" r="2.5691" gradientUnits="userSpaceOnUse">
						<stop  offset="0.1828" style="stop-color:#C2770A"/>
						<stop  offset="1" style="stop-color:#D4C4AC"/>
					</radialGradient>
					<path fill="url(#SVGID_62_)" d="M166.4,312.1l-1.4-0.5c0.4,0.7,0.7,1.5,0.9,2.3C166.1,313.3,166.3,312.7,166.4,312.1z"/>
				</g>
				<g>
					<radialGradient id="SVGID_63_" cx="292.3518" cy="311.6859" r="0.8519" gradientUnits="userSpaceOnUse">
						<stop  offset="0.1828" style="stop-color:#C2770A"/>
						<stop  offset="1" style="stop-color:#D4C4AC"/>
					</radialGradient>
					<path fill="url(#SVGID_63_)" d="M293,311.6l-0.6,0.4c0,0.2,0.1,0.4,0.1,0.6C292.6,312.2,292.8,311.9,293,311.6z"/>
				</g>
			</g>
			<radialGradient id="SVGID_64_" cx="159.0153" cy="385.4333" r="45.3588" gradientUnits="userSpaceOnUse">
				<stop  offset="0.2856" style="stop-color:#535B4A"/>
				<stop  offset="1" style="stop-color:#000000"/>
			</radialGradient>
			<path fill="url(#SVGID_64_)" d="M167.3,336.4c-17.4,6.9-17.5,32.7,9.9,39.1c20.9,4.9,42.4-7.5,28.1-19c-4.3-3.5-9.8-5.2-14.7-7.5
				C179.9,344.1,176.2,332.9,167.3,336.4z"/>
			
				<radialGradient id="SVGID_65_" cx="7321.2837" cy="384.4817" r="45.3588" gradientTransform="matrix(-1 0 0 1 7618.2778 0)" gradientUnits="userSpaceOnUse">
				<stop  offset="0.2856" style="stop-color:#535B4A"/>
				<stop  offset="1" style="stop-color:#000000"/>
			</radialGradient>
			<path fill="url(#SVGID_65_)" d="M288.7,335.5c17.4,6.9,17.5,32.7-9.9,39.1c-20.9,4.9-42.4-7.5-28.1-19c4.3-3.5,9.8-5.2,14.7-7.5
				C276.1,343.1,279.8,332,288.7,335.5z"/>
		</g>
	</g>
</g>
<linearGradient id="SVGID_66_" gradientUnits="userSpaceOnUse" x1="229.4787" y1="450.7452" x2="229.2608" y2="418.7005">
	<stop  offset="0" style="stop-color:#EF7E7C"/>
	<stop  offset="0.5" style="stop-color:#E6304E"/>
	<stop  offset="1" style="stop-color:#D90D3A"/>
</linearGradient>
<ellipse fill="url(#SVGID_66_)" cx="229.4" cy="434.7" rx="32.6" ry="16"/>
<linearGradient id="SVGID_67_" gradientUnits="userSpaceOnUse" x1="229.3698" y1="418.7013" x2="229.3698" y2="430.2117">
	<stop  offset="0" style="stop-color:#555454"/>
	<stop  offset="1" style="stop-color:#FFFFFF"/>
</linearGradient>
<polygon fill="url(#SVGID_67_)" points="228.4,418.7 229.5,430.2 230.3,418.7 "/>
</svg>
