<?xml version="1.0" encoding="utf-8"?>
<!-- Generator: Adobe Illustrator 18.1.1, SVG Export Plug-In . SVG Version: 6.00 Build 0)  -->
<svg version="1.1" id="Layer_1" xmlns="http://www.w3.org/2000/svg" xmlns:xlink="http://www.w3.org/1999/xlink" x="0px" y="0px"
	 viewBox="0 0 148.9 154.1" enable-background="new 0 0 148.9 154.1" xml:space="preserve">
<g>
	<path fill="#FDFDFD" d="M106.4,110.7v17.6c0,1.6-1.3,2.8-2.8,2.8H24.3c-1.6,0-2.8-1.3-2.8-2.8V49c0-1.6,1.3-2.8,2.8-2.8H42V38H24.3
		c-6.1,0-11,4.9-11,11v79.3c0,6.1,4.9,11,11,11h79.3c6.1,0,11-4.9,11-11v-17.6H106.4z"/>
	<circle fill="#FDFDFD" cx="83.3" cy="69.4" r="10.4"/>
	<path fill="#FDFDFD" d="M122.5,70.6c0-5.5-1.1-10.8-3.2-15.8c-2-4.8-5-9.1-8.7-12.9c-3.7-3.7-8-6.6-12.9-8.7
		c-5-2.1-10.3-3.2-15.8-3.2c-5.5,0-10.8,1.1-15.8,3.2c-3.6,1.5-6.9,3.5-9.8,5.9l0,0c-0.7,0.7-1.2,1.8-1.2,3c0,2.3,1.8,4.1,4.1,4.1
		c1.3,0,2.2-0.7,3.2-1.6c5.4-4.1,12.1-6.5,19.4-6.5c17.8,0,32.3,14.5,32.3,32.3c0,7.4-2.5,14.2-6.7,19.7c-0.7,0.9-1.3,1.8-1.3,3
		c0,2.3,1.8,4.1,4.1,4.1c1.5,0,2.6-0.8,3.5-1.9c2.2-2.8,4-5.8,5.4-9.1C121.4,81.4,122.5,76.1,122.5,70.6z"/>
	<path fill="#FDFDFD" d="M104.5,85.3c2.9-4.3,4.4-9.4,4.4-14.7c0-7.2-2.8-13.9-7.9-19c-5.1-5.1-11.8-7.9-19-7.9
		c-5.8,0-11.3,1.8-15.8,5.2l0,0c-0.7,0.7-1.1,1.8-1.1,3c0,2.3,1.8,4.1,4.1,4.1c1.2,0,1.9-0.6,3-1.3C75,53,78.4,52,82,52
		c10.3,0,18.6,8.4,18.6,18.6c0,3.7-1.1,7.1-2.9,10c0,0-1.2,1.8-1.2,3c0,2.3,1.8,4.1,4.1,4.1c1.1,0,2.2-0.5,2.9-1.2
		C103.7,86.5,104.3,85.7,104.5,85.3z"/>
	<path fill="#FDFDFD" d="M137,69.4c0-7.3-1.4-14.3-4.2-20.9c-2.7-6.4-6.6-12.2-11.5-17.1c-4.9-4.9-10.7-8.8-17.1-11.5
		c-6.6-2.8-13.7-4.2-20.9-4.2c-7.3,0-14.3,1.4-20.9,4.2c-5,2.1-9.6,4.9-13.7,8.4c-0.1,0.1-0.4,0.4-0.4,0.4c-0.8,0.7-1.2,1.8-1.2,2.9
		c0,2.3,1.8,4.1,4.1,4.1c1.2,0,2.1-0.6,3-1.3c7.9-6.6,18.1-10.6,29.2-10.6c25.2,0,45.6,20.5,45.6,45.6c0,11-3.9,21.2-10.5,29.1
		c-0.8,0.8-1.4,1.8-1.4,3.1c0,2.3,1.8,4.1,4.1,4.1c1.4,0,2.5-0.7,3.4-1.8c3.4-4.1,6.2-8.6,8.3-13.6C135.6,83.7,137,76.7,137,69.4z"
		/>
	<path fill="#FDFDFD" d="M37,117.3h-1.1h-1.3v7.5h-5.5v-22.7h8.6c5.7,0,9.1,3,9.1,7.7c0,3.1-1.5,5.4-4.3,6.5l5.2,8.6h-6.5L37,117.3z
		 M38.1,112.9c2,0,3.1-1,3.1-2.9c0-1.9-1-3-3.2-3h-3.5v5.9H38.1z"/>
	<path fill="#FDFDFD" d="M55.5,107.1v4.4h8.4v5.1h-8.4v8.2H50v-22.7h16.3v5.1H55.5z"/>
	<path fill="#FDFDFD" d="M69.3,102.1h5.5v22.7h-5.5V102.1z"/>
	<path fill="#FDFDFD" d="M88.1,102.1c6.8,0,12,4.6,12,11.5c0,6.9-5.2,11.3-12,11.3h-9.7v-22.7H88.1z M87.8,119.7
		c3.4,0,6.8-1.7,6.8-6.2c0-4.4-3.4-6.4-6.8-6.4h-3.9v12.6H87.8z"/>
</g>
</svg>
